<?xml version="1.0" encoding="utf-8"?>
<!-- Generator: Adobe Illustrator 18.0.0, SVG Export Plug-In . SVG Version: 6.00 Build 0)  -->
<!DOCTYPE svg PUBLIC "-//W3C//DTD SVG 1.1//EN" "http://www.w3.org/Graphics/SVG/1.1/DTD/svg11.dtd">
<svg version="1.1" id="Capa_1" xmlns="http://www.w3.org/2000/svg" xmlns:xlink="http://www.w3.org/1999/xlink" x="0px" y="0px"
	 viewBox="0 327.9 850 272.1" enable-background="new 0 327.9 850 272.1" xml:space="preserve">
<rect y="327.9" fill="none" width="850" height="272.1"/>
<g>
	<g>
		<g>
			<path fill="#183246" d="M306.6,367.8h27.8c6.5,0,12.3,0.9,17.4,2.5c5.1,1.9,9.3,4.2,12.7,7.4c3.5,3.2,6,6.9,7.9,11.3
				c1.9,4.4,2.8,9.3,2.8,14.4v0.2c0,5.3-0.9,10-2.8,14.6c-1.9,4.4-4.6,8.3-8.1,11.6c-3.5,3.2-7.9,5.8-13,7.6
				c-5.1,1.9-10.9,2.8-17.4,2.8h-27.6v-72.5h0.3V367.8z M334.8,422.2c6,0,10.9-1.6,14.6-4.9c3.7-3.2,5.6-7.6,5.6-13.4v-0.2
				c0-5.8-1.9-10.2-5.6-13.4c-3.7-3.2-8.6-4.9-14.6-4.9h-8.1v36.8C326.7,422.2,334.8,422.2,334.8,422.2z"/>
			<path fill="#183246" d="M440.7,367.1h19.2l31,73h-21.5l-5.3-13h-27.8l-5.1,13h-21.3L440.7,367.1z M458.3,411.5l-8.1-20.6
				l-8.1,20.6H458.3z"/>
			<path fill="#183246" d="M545.6,385.1h-21.8v-17.6h63.5v17.6h-21.8v54.7h-19.9V385.1z"/>
			<path fill="#183246" d="M662.5,441.4c-5.6,0-10.7-0.9-15.5-3c-4.9-1.9-8.8-4.6-12.3-8.1c-3.5-3.5-6.3-7.4-8.1-11.8
				c-1.9-4.6-3-9.5-3-14.6v-0.2c0-5.1,0.9-10,3-14.6c1.9-4.6,4.6-8.6,8.1-12c3.5-3.5,7.6-6,12.5-8.1c4.9-1.9,10-3,15.5-3
				c5.6,0,10.7,0.9,15.5,3c4.9,1.9,8.8,4.6,12.3,8.1s6.3,7.4,8.1,11.8c1.9,4.6,3,9.5,3,14.6v0.2c0,5.1-0.9,10-3,14.6
				c-1.9,4.6-4.6,8.6-8.1,12s-7.6,6-12.5,8.1C673.3,440.5,668.2,441.4,662.5,441.4z M662.7,423.4c2.8,0,5.3-0.5,7.6-1.6
				c2.3-0.9,4.2-2.3,5.8-4.2c1.6-1.9,2.8-3.7,3.7-6.3c0.9-2.3,1.4-4.9,1.4-7.4v-0.2c0-2.5-0.5-5.1-1.4-7.4s-2.1-4.4-3.9-6.3
				c-1.6-1.9-3.7-3.2-5.8-4.4c-2.3-1.2-4.9-1.6-7.6-1.6c-2.8,0-5.3,0.5-7.4,1.6c-2.3,0.9-4.2,2.3-5.8,4.2c-1.6,1.9-2.8,3.7-3.7,6.3
				c-0.9,2.3-1.4,4.9-1.4,7.4v0.2c0,2.5,0.5,5.1,1.4,7.4c0.9,2.3,2.1,4.4,3.7,6.3c1.6,1.9,3.5,3.2,5.8,4.2
				C657.4,422.9,659.9,423.4,662.7,423.4z"/>
			<path fill="#183246" d="M770.6,441.2c-6.5,0-12.5-0.9-18.5-3c-5.8-2.1-10.9-5.1-15.5-9l11.1-13.4c7.2,5.8,15.1,8.6,23.4,8.6
				c2.8,0,4.6-0.5,6.3-1.4c1.4-0.9,2.1-2.1,2.1-3.7V419c0-0.7-0.2-1.4-0.5-2.1c-0.2-0.7-0.9-1.2-1.9-1.6c-1-0.4-2.1-1.2-3.7-1.6
				c-1.6-0.5-3.5-1.2-6-1.6c-3.9-0.9-7.4-1.9-10.7-3c-3.2-1.2-6.3-2.5-8.6-4.2c-2.5-1.6-4.4-3.7-5.8-6.3s-2.1-5.6-2.1-9.3v-0.2
				c0-3.5,0.7-6.5,1.9-9.3c1.4-2.8,3.2-5.3,5.6-7.4c2.5-2.1,5.3-3.7,8.8-4.9c3.5-1.2,7.4-1.6,11.6-1.6c6.3,0,11.8,0.9,16.7,2.5
				s9.3,3.9,13.2,7.2l-10,14.1c-3.2-2.3-6.7-4.2-10.2-5.3c-3.5-1.1-6.9-1.9-10-1.9c-2.3,0-4.2,0.5-5.3,1.4c-1.2,0.9-1.9,2.1-1.9,3.2
				v0.2c0,0.9,0.2,1.6,0.5,2.1c0.5,0.7,0.9,1.2,1.9,1.6c1,0.4,2.3,0.9,3.9,1.6c1.6,0.5,3.7,1.2,6.3,1.6c4.2,0.9,7.9,1.9,11.1,3.2
				c3.2,1.2,6.3,2.5,8.6,4.4c2.3,1.6,4.2,3.7,5.3,6.3c1.2,2.5,1.9,5.3,1.9,8.8v0.2c0,3.7-0.7,6.9-2.1,10c-1.4,2.8-3.5,5.3-6,7.4
				c-2.5,2.1-5.6,3.5-9.3,4.6C779,440.2,775,441.2,770.6,441.2z"/>
			<path fill="#183246" d="M325.3,474.7h11.1l23.2,54.7h-12.5l-4.9-12.3h-22.9l-4.9,12.3h-12.3L325.3,474.7z M337.8,506.6l-7.2-17.6
				l-7.2,17.6H337.8z"/>
			<path fill="#183246" d="M379.7,475.1h25.2c6.3,0,10.9,1.6,14.1,4.9c2.5,2.5,3.7,5.6,3.7,9.3v0.2c0,1.6-0.2,3-0.5,4.2
				c-0.5,1.2-0.9,2.3-1.6,3.2c-0.7,0.9-1.4,1.9-2.3,2.5c-0.9,0.7-1.9,1.4-2.8,1.9c3.2,1.2,5.6,2.8,7.4,4.9c1.8,2.1,2.8,4.9,2.8,8.6
				v0.2c0,2.5-0.5,4.6-1.4,6.5c-0.9,1.9-2.3,3.5-4.2,4.6c-1.9,1.2-3.9,2.1-6.5,2.8c-2.5,0.7-5.3,0.9-8.3,0.9h-25.7L379.7,475.1
				L379.7,475.1z M402.4,496.9c2.5,0,4.6-0.5,6.3-1.4c1.6-0.9,2.3-2.3,2.3-4.4v-0.2c0-1.9-0.7-3.2-2.1-4.2c-1.4-0.9-3.2-1.4-5.8-1.4
				h-11.8v11.6H402.4z M405.5,518.9c2.5,0,4.6-0.5,6.3-1.4c1.4-0.9,2.3-2.5,2.3-4.4v-0.2c0-1.9-0.7-3.2-2.1-4.4
				c-1.4-1.2-3.7-1.6-6.7-1.6h-13.9v12H405.5z"/>
			<path fill="#183246" d="M448.1,475.1h12v54.2h-12V475.1z"/>
			<path fill="#183246" d="M485.4,475.1h41v10.7h-29.2v11.1h25.7v10.7h-25.7v11.3h29.4v10.4h-41.2V475.1L485.4,475.1z"/>
			<path fill="#183246" d="M549.1,475.1h24.8c6.9,0,12,1.9,15.7,5.6c3,3,4.6,7.2,4.6,12.5v0.2c0,4.4-1.2,7.9-3.2,10.7
				c-2.1,2.8-4.9,4.9-8.3,6l13.2,19.5h-14l-11.6-17.4h-0.2h-9.2v17.1h-12v-54.2L549.1,475.1L549.1,475.1z M573.1,501.5
				c3,0,5.1-0.7,6.7-2.1c1.6-1.4,2.3-3.2,2.3-5.6v-0.2c0-2.5-0.9-4.6-2.5-5.8c-1.6-1.4-3.9-1.9-6.9-1.9h-11.8v15.5L573.1,501.5
				L573.1,501.5z"/>
			<path fill="#183246" d="M629.3,486h-16.4v-11.1h44.9V486h-16.4v43.3h-12L629.3,486L629.3,486z"/>
			<path fill="#183246" d="M705.1,530.3c-4.2,0-8.1-0.7-11.6-2.3c-3.5-1.4-6.5-3.5-9-6c-2.5-2.5-4.6-5.6-6-8.8
				c-1.4-3.2-2.1-6.9-2.1-10.9v-0.2c0-3.9,0.7-7.4,2.1-10.9c1.4-3.5,3.5-6.3,6-9c2.5-2.5,5.6-4.6,9.3-6c3.5-1.4,7.4-2.3,11.6-2.3
				c4.2,0,8.1,0.7,11.6,2.3c3.5,1.4,6.5,3.5,9,6c2.5,2.5,4.6,5.6,6,8.8c1.4,3.2,2.1,6.9,2.1,10.9v0.2c0,3.9-0.7,7.4-2.1,10.9
				c-1.4,3.5-3.5,6.3-6,9c-2.5,2.5-5.6,4.6-9.3,6C713.2,529.6,709.2,530.3,705.1,530.3z M705.3,519.4c2.3,0,4.6-0.5,6.5-1.4
				c2.1-0.9,3.7-2.1,5.1-3.7s2.5-3.2,3.2-5.3c0.7-2.1,1.2-4.2,1.2-6.5v-0.2c0-2.3-0.5-4.6-1.2-6.5c-0.7-2.1-1.9-3.9-3.5-5.3
				c-1.4-1.6-3.2-2.8-5.3-3.7s-4.2-1.4-6.5-1.4c-2.5,0-4.6,0.5-6.7,1.4c-2.1,0.9-3.7,2.1-5.1,3.7s-2.5,3.2-3.2,5.3
				c-0.7,2.1-1.2,4.2-1.2,6.5v0.2c0,2.3,0.5,4.6,1.2,6.5c0.7,2.1,1.9,3.9,3.5,5.3c1.4,1.6,3.2,2.8,5.1,3.7
				C700.7,518.9,702.8,519.4,705.3,519.4z"/>
			<path fill="#183246" d="M775.7,530c-4.2,0-8.1-0.7-12.3-2.1c-3.9-1.4-7.6-3.7-10.9-6.5l6.9-8.6c2.5,2.1,5.1,3.7,7.6,4.9
				c2.5,1.2,5.6,1.9,8.6,1.9c2.5,0,4.4-0.5,5.8-1.4c1.4-0.9,2.1-2.1,2.1-3.7v-0.2c0-0.7-0.2-1.4-0.5-2.1c-0.2-0.7-0.9-1.2-1.6-1.6
				c-0.7-0.5-1.9-0.9-3.2-1.6c-1.3-0.7-3.2-1.2-5.6-1.6c-2.8-0.7-5.3-1.4-7.4-2.3c-2.3-0.9-4.2-1.9-5.8-3c-1.6-1.2-2.8-2.8-3.7-4.6
				s-1.4-4.2-1.4-6.7v-0.2c0-2.5,0.5-4.6,1.4-6.7c0.9-2.1,2.3-3.7,3.9-5.1c1.6-1.4,3.7-2.5,6-3.2c2.3-0.7,4.9-1.2,7.6-1.2
				c3.9,0,7.6,0.7,10.9,1.9c3.2,1.2,6.5,3,9.3,5.1l-6.3,9c-2.5-1.6-4.9-3-7.2-3.9s-4.6-1.4-6.9-1.4c-2.3,0-4.2,0.5-5.3,1.4
				c-1.2,0.9-1.9,2.1-1.9,3.5v0.2c0,0.9,0.2,1.6,0.5,2.3c0.2,0.7,0.9,1.2,1.9,1.9c0.9,0.5,2.1,0.9,3.7,1.4c1.6,0.5,3.5,0.9,5.8,1.6
				c2.8,0.7,5.1,1.6,7.4,2.5c2.1,0.9,3.9,2.1,5.6,3.2c1.4,1.2,2.5,2.8,3.2,4.4c0.7,1.6,1.2,3.7,1.2,6v0.2c0,2.8-0.5,5.1-1.4,7.2
				c-0.9,2.1-2.3,3.9-4.2,5.3c-1.9,1.4-3.9,2.5-6.3,3.2C781.5,529.8,778.7,530,775.7,530z"/>
		</g>
	</g>
	<g>
		<polygon opacity="0.7" fill="#8BB91A" enable-background="new    " points="307.5,551.1 328.8,551.1 345,575.4 323.7,575.4 		"/>
		<polygon fill="#8BB91A" points="307.5,600 328.8,600 345,575.4 323.7,575.4 		"/>
		<polygon opacity="0.7" fill="#00A4B8" enable-background="new    " points="340.8,551.1 362.1,551.1 378.4,575.4 357.1,575.4 		
			"/>
		<polygon fill="#00A4B8" points="340.8,600 362.1,600 378.4,575.4 357.1,575.4 		"/>
	</g>
	<g>
		<path fill="#00A4B8" d="M425.8,597.2l-9.3-13.9h-7.6v13.9h-9.5v-43.8h19.9c10.2,0,16.4,5.3,16.4,14.4v0.2c0,6.9-3.7,11.6-9.3,13.4
			l10.7,15.5h-11.3L425.8,597.2L425.8,597.2z M426.1,568.5c0-4.2-2.8-6.3-7.6-6.3h-9.6v12.5h9.7
			C423.3,574.7,426.1,572.2,426.1,568.5L426.1,568.5z"/>
		<path fill="#00A4B8" d="M443.4,597.2v-43.8h9.5v43.5h-9.5V597.2z M444.1,550.2l6.9-11.1l8.1,3.5l-7.6,7.6H444.1z"/>
		<path fill="#00A4B8" d="M483.7,597.9c-13.4,0-23.2-10-23.2-22.5v-0.2c0-12.5,9.7-22.5,23.2-22.5c13.4,0,23.2,10,23.2,22.5v0.2
			C506.9,587.7,497.2,597.9,483.7,597.9z M496.9,575.4c0-7.4-5.6-13.7-13.2-13.7s-13.2,6-13.2,13.7v0.2c0,7.4,5.6,13.7,13.2,13.7
			C491.6,589.1,496.9,582.8,496.9,575.4L496.9,575.4z"/>
		<path fill="#00A4B8" d="M551.8,597.9c-12.7,0-22.5-10-22.5-22.5v-0.2c0-12.5,9.3-22.5,22.7-22.5c8.3,0,13.2,2.8,17.1,6.7l-6,6.9
			c-3.5-3-6.7-4.9-11.1-4.9c-7.4,0-12.7,6-12.7,13.7v0.2c0,7.4,5.1,13.7,12.7,13.7c5.1,0,8.1-2.1,11.6-5.1l6,6.3
			C565.3,594.9,560.2,597.9,551.8,597.9z"/>
		<path fill="#00A4B8" d="M594.2,597.9c-11.8,0-19-6.5-19-19.5v-25h9.5v24.8c0,7.2,3.5,10.9,9.5,10.9c5.8,0,9.5-3.5,9.5-10.4v-25.2
			h9.5v24.6C613.1,591.4,605.7,597.9,594.2,597.9z"/>
		<path fill="#00A4B8" d="M652.5,597.2l-3.9-9.7h-18.5l-3.9,9.7h-9.7l18.8-44h8.8l18.8,44H652.5z M639.3,564.8l-5.8,14.1h11.6
			L639.3,564.8z"/>
		<path fill="#00A4B8" d="M694.4,597.2l-9.3-13.9h-7.6v13.9H668v-43.8h19.9c10.2,0,16.4,5.3,16.4,14.4v0.2c0,6.9-3.7,11.6-9.3,13.4
			l10.7,15.5h-11.3L694.4,597.2L694.4,597.2z M694.6,568.5c0-4.2-2.8-6.3-7.6-6.3h-9.5v12.5h9.7
			C691.9,574.7,694.6,572.2,694.6,568.5L694.6,568.5z"/>
		<path fill="#00A4B8" d="M731.2,562.5v34.7h-9.5v-34.7h-13.2v-8.8h36.1v8.8H731.2z"/>
		<path fill="#00A4B8" d="M769.9,597.9c-13.4,0-23.2-10-23.2-22.5v-0.2c0-12.5,9.7-22.5,23.2-22.5c13.4,0,23.2,10,23.2,22.5v0.2
			C793.1,587.7,783.4,597.9,769.9,597.9z M783.1,575.4c0-7.4-5.6-13.7-13.2-13.7c-7.6,0-13.2,6-13.2,13.7v0.2
			c0,7.4,5.6,13.7,13.2,13.7C777.8,589.1,783.1,582.8,783.1,575.4L783.1,575.4z"/>
	</g>
</g>
<g>
	<path fill="#183246" d="M93.8,367.5C40.3,378.2,0,425.4,0,482.1c0,64.6,52.3,117,117,117s117-52.3,117-117h-21.5
		c0,52.6-42.6,95.4-95.4,95.4c-52.6,0-95.4-42.6-95.4-95.4c0-44.7,30.8-82.2,72.3-92.6C93.8,389.5,93.8,367.5,93.8,367.5z"/>
	<polygon fill="#00A4B8" points="117.9,365.2 29.6,489.7 29.6,515.7 55.6,515.7 55.6,489.7 143.1,365.2 	"/>
	<polygon fill="#8BB91A" points="169.5,342.1 65.8,489.7 65.8,559.9 91.3,559.9 91.3,489.7 194.6,342.1 	"/>
	<polygon fill="#8BB91A" points="231.7,355.5 137.1,489.7 137.1,561.1 163.1,561.1 163.1,489.7 257,355.5 	"/>
	<polygon fill="#183246" points="239.9,327.9 214.6,327.9 101.2,489.7 101.2,573.8 127.2,573.8 127.2,489.7 127.2,489.7 	"/>
	<polygon fill="#00A4B8" points="243.3,390.2 173,489.7 173,528.4 199.2,528.4 199.2,489.7 269.3,390.2 	"/>
</g>
</svg>
