<?xml version="1.0" encoding="utf-8"?>
<!-- Generator: Adobe Illustrator 18.0.0, SVG Export Plug-In . SVG Version: 6.00 Build 0)  -->
<!DOCTYPE svg PUBLIC "-//W3C//DTD SVG 1.1//EN" "http://www.w3.org/Graphics/SVG/1.1/DTD/svg11.dtd">
<svg version="1.1" id="Capa_1" xmlns="http://www.w3.org/2000/svg" xmlns:xlink="http://www.w3.org/1999/xlink" x="0px" y="0px"
	 viewBox="0 90.9 800 418.2" enable-background="new 0 90.9 800 418.2" xml:space="preserve">
<rect y="90.9" fill="none" width="800" height="418.2"/>
<g>
	<path fill="#66973B" d="M157.8,137.3c-24.5,0-44.5,20-44.5,44.5S152,250.2,152,283.3h11.6c0-32.9,38.7-78.9,38.7-101.5
		C202.4,157.3,182.5,137.3,157.8,137.3z M157.8,201.5c-10.7,0-19.6-8.7-19.6-19.6c0-10.7,8.7-19.6,19.6-19.6
		c10.7,0,19.6,8.7,19.6,19.6C177.5,192.7,168.7,201.5,157.8,201.5z"/>
	<path opacity="0.7" fill="#66973B" enable-background="new    " d="M212,160.2c2.4,5.8,3.8,12.2,4,18.7l25.1-12.5v171.3l-37.6,18.7
		L146.5,332c-2.4-1.1-4.7-1.5-7.3-1.5c-2.9,0-5.6,0.7-8.4,2l-47.6,23.8l-45.6-19.6V164.4l38.9,16.7c2.4,1.1,4.7,1.5,7.3,1.5
		c2.9,0,5.6-0.7,8.4-2l7.6-3.8c0.7-8.9,3.6-17.3,8-24.7L84,163.8l-64.9-27.5v212.7l64.7,27.8l55.6-27.8l64.7,27.8l55.5-27.8V136.4
		L212,160.2z"/>
	<g>
		<path fill="#9EC6E8" d="M139.5,349.1l55.3,23.6c-2.5-61.8-32.4-72-55.3-72c-5.1,0-8.9,5.8-18.5,0.5c-16.2-9.1-10.9-34-36.9-35.5
			c-23.3-23.1-55.6-18.5-55.6-18.5h-9.3v101.8l64.7,27.8L139.5,349.1z"/>
	</g>
	<g>
		<path fill="#183246" d="M419.8,361.5c-16.5,0-31.6-2.7-45.5-8.2c-13.6-5.5-25.5-13.1-35.3-22.7c-9.8-9.6-17.5-21.3-22.9-34.5
			c-5.5-13.3-8.2-28-8.2-43.6v-0.5c0-15.1,2.7-29.5,8.4-42.7s13.3-24.9,23.3-34.9s21.6-18,35.3-23.6c13.6-5.8,28.4-8.7,44.5-8.7
			c9.5,0,18.2,0.7,26,2c7.8,1.3,15.1,3.3,21.6,5.6c6.7,2.4,12.9,5.5,18.9,9.1c5.8,3.6,11.5,7.8,16.9,12.4l-29.5,35.5
			c-4-3.5-8.2-6.5-12.2-9.1c-4-2.5-8.2-4.9-12.5-6.7c-4.4-1.8-9.1-3.3-14.2-4.2c-5.1-1.1-10.5-1.5-16.7-1.5
			c-8.5,0-16.4,1.8-23.8,5.3c-7.5,3.6-13.8,8.4-19.5,14.4c-5.6,6-10,12.9-13.1,20.9c-3.1,8-4.7,16.5-4.7,25.6v0.5
			c0,9.8,1.6,18.7,4.7,26.9s7.6,15.5,13.3,21.5c5.8,6,12.5,10.7,20.4,14.2c7.8,3.3,16.4,5.1,26,5.1c17.5,0,32-4.4,44-12.9v-30.5H418
			v-40.4h92.4v92.4c-10.9,9.3-24,17.3-39.1,23.8C456.5,358.2,439.3,361.5,419.8,361.5z"/>
		<path fill="#183246" d="M542.5,145.3h46.7v212.5h-46.7V145.3z"/>
		<path fill="#183246" d="M703.1,360.7c-16.2,0-32-2.7-47.6-8.4c-15.6-5.6-29.8-14.2-42.5-25.6l27.6-33.1
			c9.6,7.8,19.6,14.2,29.8,18.9c10.2,4.7,21.5,6.9,33.6,6.9c9.6,0,17.3-1.8,22.5-5.3c5.3-3.5,8-8.4,8-14.7v-0.5c0-3.1-0.5-5.6-1.6-8
			s-3.3-4.5-6.4-6.5s-7.5-4-13.1-6c-5.6-2-12.9-4.2-21.8-6.4c-10.7-2.5-20.5-5.6-29.3-8.7c-8.7-3.3-16.2-7.3-22.2-12
			c-6-4.7-10.7-10.7-14.2-17.8c-3.3-7.1-5.1-15.8-5.1-26.4v-0.5c0-9.6,1.8-18.5,5.5-26.2c3.6-7.8,8.7-14.5,15.3-20.2
			c6.5-5.6,14.4-10,23.5-13.1c9.1-3.1,19.1-4.5,30-4.5c15.6,0,29.8,2.4,42.9,6.9c13.1,4.7,25.1,11.3,36,20l-24.4,35.3
			c-9.5-6.5-18.9-11.6-28-15.3c-9.1-3.8-18.2-5.6-27.3-5.6s-16,1.8-20.5,5.3c-4.5,3.5-6.9,8-6.9,13.3v0.5c0,3.5,0.7,6.4,2,8.9
			c1.3,2.5,3.6,4.7,7.1,6.9c3.5,2,8.2,4,14.2,5.8c6,1.8,13.5,4,22.7,6.4c10.7,2.9,20.4,6,28.7,9.6c8.4,3.5,15.5,7.8,21.3,12.7
			c5.8,4.9,10.2,10.7,13.1,17.5c2.9,6.7,4.4,14.7,4.4,24v0.5c0,10.5-2,19.8-5.8,28s-9.1,15.1-16,20.7c-6.9,5.6-14.9,9.8-24.5,12.7
			C725.1,359.3,714.7,360.7,703.1,360.7z"/>
	</g>
	<g>
		<path fill="#183246" d="M29.5,410h9.8l16,24.9l16-24.9h9.8v52.7h-9.3v-37.8l-16.7,24.9h-0.4l-16.5-24.7v37.6h-9.3V410H29.5z"/>
		<path fill="#183246" d="M109.8,409.6h8.5l23.3,53.1h-9.8l-5.3-12.7h-25.1L96,462.7h-9.5L109.8,409.6z M123.1,441.8l-9.1-21.1
			l-9.1,21.1H123.1z"/>
		<path fill="#183246" d="M146.9,410h20.7c3.1,0,5.8,0.4,8.4,1.3s4.5,2,6.4,3.6s3.1,3.5,4,5.6c0.9,2.2,1.5,4.5,1.5,7.3v0.2
			c0,2.9-0.5,5.6-1.6,7.8c-1.1,2.2-2.5,4.2-4.5,5.6s-4.2,2.7-6.7,3.5c-2.5,0.7-5.3,1.1-8.2,1.1h-10.5v16.9h-9.3V410z M166.9,437.5
			c3.5,0,6.4-0.9,8.4-2.7s3.1-4,3.1-6.7v-0.2c0-3.1-1.1-5.5-3.1-7.1s-4.9-2.4-8.4-2.4h-10.7v19.1H166.9z"/>
		<path fill="#183246" d="M212.2,409.6h8.5l23.3,53.1h-9.8l-5.3-12.7H204l-5.5,12.7h-9.5L212.2,409.6z M225.5,441.8l-9.1-21.1
			l-9.1,21.1H225.5z"/>
		<path fill="#183246" d="M267.8,463.5c-4,0-8-0.7-11.6-2c-3.6-1.5-7.1-3.5-10.4-6.4l5.6-6.5c2.5,2.2,5.1,3.8,7.8,5.1
			c2.5,1.3,5.6,1.8,8.9,1.8c2.9,0,5.1-0.5,6.9-1.8c1.6-1.3,2.5-2.7,2.5-4.9v-0.2c0-0.9-0.2-1.8-0.5-2.5c-0.4-0.7-0.9-1.5-1.8-2
			c-0.9-0.7-2.2-1.3-3.6-1.8s-3.5-1.1-6-1.6c-2.9-0.7-5.3-1.5-7.5-2.2c-2.2-0.9-4-1.8-5.5-3.1c-1.5-1.3-2.5-2.5-3.5-4.4
			c-0.7-1.6-1.1-3.8-1.1-6.2v-0.2c0-2.2,0.4-4.4,1.3-6.2s2.2-3.5,3.6-4.9c1.6-1.3,3.5-2.4,5.6-3.1c2.2-0.7,4.5-1.1,7.3-1.1
			c3.8,0,7.3,0.5,10.4,1.6c3.1,1.1,6,2.7,8.7,4.9l-4.9,7.1c-2.4-1.8-4.7-3.1-7.1-4c-2.4-0.9-4.7-1.5-7.1-1.5c-2.7,0-4.9,0.5-6.4,1.8
			c-1.5,1.3-2.2,2.7-2.2,4.4v0.2c0,1.1,0.2,1.8,0.5,2.7c0.4,0.7,0.9,1.5,2,2.2c0.9,0.5,2.2,1.3,3.8,1.8c1.6,0.5,3.6,1.1,6.2,1.8
			c2.7,0.7,5.3,1.5,7.5,2.4c2.2,0.9,4,1.8,5.3,3.1c1.5,1.3,2.5,2.7,3.3,4.4s1.1,3.5,1.1,5.6v0.2c0,2.5-0.5,4.7-1.5,6.5
			c-0.9,2-2.2,3.6-3.8,4.9c-1.6,1.3-3.6,2.4-6,3.1C273.1,463.1,270.5,463.5,267.8,463.5z"/>
		<path fill="#183246" d="M312.5,410H336c3.3,0,6.2,0.5,8.9,1.5c2.5,0.9,4.7,2.2,6.4,3.8c1.5,1.5,2.5,3.1,3.3,5.1
			c0.7,2,1.1,4,1.1,6.4v0.2c0,2.2-0.4,4.2-0.9,5.8c-0.5,1.8-1.5,3.3-2.5,4.5c-1.1,1.3-2.4,2.5-4,3.5c-1.5,0.9-3.3,1.6-5.1,2.2
			l14.2,20h-10.9l-13.1-18.4h-0.2h-11.3v18.4h-9.3V410z M335.3,436.2c3.3,0,6-0.7,8-2.4c2-1.6,2.9-3.8,2.9-6.5v-0.2
			c0-2.9-0.9-5.1-2.9-6.5c-2-1.5-4.5-2.2-8-2.2h-13.5v17.8L335.3,436.2L335.3,436.2z"/>
		<path fill="#183246" d="M363.8,410h9.3v52.7h-9.3V410z"/>
		<path fill="#183246" d="M408.5,463.6c-4,0-7.8-0.7-11.1-2.2c-3.5-1.5-6.2-3.5-8.7-5.8c-2.4-2.5-4.4-5.3-5.6-8.5
			c-1.3-3.3-2-6.7-2-10.5v-0.2c0-3.6,0.7-7.3,2-10.5s3.3-6.2,5.8-8.7c2.5-2.5,5.5-4.5,8.7-6c3.5-1.5,7.1-2.2,11.1-2.2
			c4,0,7.8,0.7,11.1,2.2c3.5,1.5,6.2,3.5,8.7,5.8c2.4,2.5,4.4,5.3,5.6,8.5s2,6.7,2,10.5v0.2c0,3.6-0.7,7.3-2,10.5
			c-1.3,3.3-3.3,6.2-5.8,8.7c-2.5,2.5-5.5,4.5-8.7,6S412.7,463.6,408.5,463.6z M408.7,455.1c2.5,0,4.9-0.5,7.1-1.5
			c2.2-0.9,4-2.4,5.6-4c1.6-1.6,2.7-3.6,3.6-6c0.9-2.2,1.3-4.7,1.3-7.3l0,0c0-2.5-0.4-4.9-1.3-7.3c-0.9-2.4-2.2-4.2-3.6-6
			c-1.6-1.6-3.5-3.1-5.6-4c-2.2-1.1-4.5-1.5-7.3-1.5c-2.5,0-4.9,0.5-7.1,1.5s-4,2.4-5.6,4c-1.6,1.6-2.7,3.6-3.6,6
			c-0.9,2.2-1.3,4.7-1.3,7.3v0.2c0,2.5,0.4,4.9,1.3,7.3s2.2,4.2,3.6,6c1.6,1.6,3.5,3.1,5.6,4C403.6,454.5,406.2,455.1,408.7,455.1z"
			/>
		<path fill="#183246" d="M487.1,463.6c-3.8,0-7.5-0.7-10.7-2.2s-6.2-3.3-8.5-5.8c-2.4-2.4-4.4-5.3-5.6-8.5c-1.5-3.3-2-6.9-2-10.5
			v-0.2c0-3.8,0.7-7.3,2-10.5s3.3-6.2,5.6-8.7c2.4-2.5,5.3-4.4,8.5-5.8c3.3-1.5,6.9-2.2,11.1-2.2c2.4,0,4.5,0.2,6.5,0.5
			c2,0.4,3.8,0.9,5.5,1.6s3.3,1.6,4.5,2.5c1.5,1.1,2.7,2.2,4,3.3l-6,6.9c-2.2-2-4.4-3.5-6.7-4.7c-2.4-1.3-5.1-1.8-8-1.8
			c-2.5,0-4.9,0.5-6.9,1.5c-2.2,0.9-4,2.4-5.5,4c-1.6,1.6-2.7,3.6-3.6,6s-1.3,4.7-1.3,7.3v0.2c0,2.5,0.4,4.9,1.3,7.3
			c0.9,2.4,2,4.4,3.6,6c1.6,1.6,3.5,3.1,5.5,4c2.2,0.9,4.5,1.5,6.9,1.5c3.3,0,6-0.5,8.4-1.8c2.4-1.3,4.5-2.9,6.9-5.1l6,6
			c-1.3,1.5-2.7,2.7-4.2,3.8c-1.5,1.1-3.1,2.2-4.7,2.9c-1.6,0.9-3.6,1.5-5.6,1.8C492,463.1,489.6,463.6,487.1,463.6z"/>
		<path fill="#183246" d="M536,463.6c-3.5,0-6.5-0.5-9.3-1.5c-2.7-0.9-5.1-2.4-7.1-4.4c-2-2-3.5-4.4-4.5-7.3
			c-1.1-2.9-1.6-6.2-1.6-10v-30.4h9.3V440c0,4.9,1.3,8.7,3.6,11.3c2.4,2.5,5.6,3.8,9.8,3.8s7.5-1.3,9.8-3.6
			c2.4-2.5,3.6-6.2,3.6-11.1V410h9.3v30c0,4-0.5,7.3-1.6,10.4c-1.1,2.9-2.5,5.5-4.5,7.5c-2,2-4.4,3.5-7.1,4.4
			C542.7,463.1,539.5,463.6,536,463.6z"/>
		<path fill="#183246" d="M586.4,409.6h8.5l23.3,53.1h-9.8l-5.3-12.7h-24.9l-5.5,12.7h-9.5L586.4,409.6z M599.6,441.8l-9.1-21.1
			l-9.1,21.1H599.6z"/>
		<path fill="#183246" d="M623.5,410h23.5c3.3,0,6.2,0.5,8.9,1.5c2.5,0.9,4.7,2.2,6.4,3.8c1.5,1.5,2.5,3.1,3.3,5.1
			c0.7,2,1.1,4,1.1,6.4v0.2c0,2.2-0.4,4.2-0.9,5.8c-0.5,1.8-1.5,3.3-2.5,4.5c-1.1,1.3-2.4,2.5-4,3.5c-1.5,0.9-3.3,1.6-5.1,2.2
			l14.2,20h-10.9l-13.1-18.4H644h-11.3v18.4h-9.3V410z M646.4,436.2c3.3,0,6-0.7,8-2.4c2-1.6,2.9-3.8,2.9-6.5v-0.2
			c0-2.9-0.9-5.1-2.9-6.5s-4.5-2.2-8-2.2h-13.6v17.8L646.4,436.2L646.4,436.2z"/>
		<path fill="#183246" d="M687.3,418.5h-16.7V410h42.7v8.5h-16.7v44.2h-9.3V418.5z"/>
		<path fill="#183246" d="M744.5,463.6c-4,0-7.8-0.7-11.1-2.2c-3.5-1.5-6.2-3.5-8.7-5.8c-2.4-2.5-4.4-5.3-5.6-8.5s-2-6.7-2-10.5
			v-0.2c0-3.6,0.7-7.3,2-10.5s3.3-6.2,5.8-8.7c2.5-2.5,5.5-4.5,8.7-6c3.5-1.5,7.1-2.2,11.1-2.2c4,0,7.8,0.7,11.1,2.2
			c3.5,1.5,6.2,3.5,8.7,5.8c2.4,2.5,4.4,5.3,5.6,8.5c1.3,3.3,2,6.7,2,10.5v0.2c0,3.6-0.7,7.3-2,10.5c-1.3,3.3-3.3,6.2-5.8,8.7
			c-2.5,2.5-5.5,4.5-8.7,6C752.2,462.9,748.5,463.6,744.5,463.6z M744.5,455.1c2.5,0,4.9-0.5,7.1-1.5c2.2-0.9,4-2.4,5.6-4
			s2.7-3.6,3.6-6c0.9-2.2,1.3-4.7,1.3-7.3l0,0c0-2.5-0.4-4.9-1.3-7.3c-0.9-2.4-2.2-4.2-3.6-6c-1.6-1.6-3.5-3.1-5.6-4
			c-2.2-1.1-4.5-1.5-7.3-1.5c-2.5,0-4.9,0.5-7.1,1.5c-2.2,0.9-4,2.4-5.6,4s-2.7,3.6-3.6,6c-0.9,2.4-1.3,4.7-1.3,7.3v0.2
			c0,2.5,0.4,4.9,1.3,7.3c0.9,2.4,2.2,4.2,3.6,6c1.6,1.6,3.5,3.1,5.6,4C739.6,454.5,742,455.1,744.5,455.1z"/>
	</g>
</g>
</svg>
