<?xml version="1.0" encoding="utf-8"?>
<!-- Generator: Adobe Illustrator 18.0.0, SVG Export Plug-In . SVG Version: 6.00 Build 0)  -->
<!DOCTYPE svg PUBLIC "-//W3C//DTD SVG 1.1//EN" "http://www.w3.org/Graphics/SVG/1.1/DTD/svg11.dtd">
<svg version="1.1" id="Capa_1" xmlns="http://www.w3.org/2000/svg" xmlns:xlink="http://www.w3.org/1999/xlink" x="0px" y="0px"
	 viewBox="-137 546.1 900 269.5" enable-background="new -137 546.1 900 269.5" xml:space="preserve">
<rect x="-137" y="546.1" fill="none" width="900" height="269.5"/>
<g id="Capa_1_1_" display="none">
	<g display="inline">
		<g id="XMLID_6923_">
			<g id="XMLID_167_">
				<path id="XMLID_184_" fill="#646363" d="M-1005.7,3345.7v-8.1c-3.4,4.7-9.4,9.1-18.9,9.1c-9.1,0-19.2-5.1-19.2-15.2v-0.3
					c0-10.1,8.8-15.5,21.6-15.5c6.7,0,11.5,1,16.2,2v-2c0-9.8-6.1-14.8-16.2-14.8c-6.1,0-10.8,1.7-15.5,3.7l-1.7-4
					c5.4-2.4,10.8-4,17.5-4c12.8,0,20.6,6.4,20.6,18.9v30h-4.4V3345.7L-1005.7,3345.7z M-1005.4,3322.1c-4.4-1-9.8-2-16.8-2
					c-10.4,0-16.2,4.4-16.2,11.1v0.3c0,7.1,6.7,11.1,14.1,11.1c10.1,0,18.5-6.1,18.5-14.8L-1005.4,3322.1L-1005.4,3322.1z"/>
				<path id="XMLID_182_" fill="#646363" d="M-967,3346h-4l-22.2-48.5h5.4l18.5,42.8l18.9-42.8h5.4L-967,3346z"/>
				<path id="XMLID_179_" fill="#646363" d="M-916.4,3342.3c7.7,0,12.8-3.4,16.8-7.4l3.4,2.7c-5.1,5.4-10.8,9.1-20.6,9.1
					c-12.8,0-24.3-10.1-24.3-24.9v-0.3c0-13.8,10.1-24.9,23.2-24.9c13.8,0,22.6,10.8,22.6,25.3v0.3c0,0.7,0,1,0,1.7h-40.4
					C-935,3335.6-926.2,3342.3-916.4,3342.3z M-899.9,3319.4c-0.7-9.8-6.4-18.5-17.5-18.5c-9.8,0-17.2,8.1-18.2,18.5H-899.9z"/>
				<path id="XMLID_177_" fill="#646363" d="M-845.7,3345.7v-28.6c0-9.8-5.7-16.5-15.5-16.5c-9.8,0-17.2,7.1-17.2,17.2v28h-4.7
					v-48.2h4.7v9.1c3.4-5.7,8.8-10.1,17.9-10.1c12.5,0,19.9,8.4,19.9,19.9v29.3C-840.6,3345.7-845.7,3345.7-845.7,3345.7z"/>
				<path id="XMLID_175_" fill="#646363" d="M-810,3346.4c-7.7,0-13.8-4-13.8-13.1v-31.7h-7.4v-4.4h7.1v-15.5h4.7v15.5h17.2v4.4
					h-17.2v31c0,6.7,4,9.4,9.8,9.4c2.4,0,4.4-0.3,7.4-1.7v4.4C-804.6,3346-806.9,3346.4-810,3346.4z"/>
				<path id="XMLID_173_" fill="#646363" d="M-753.7,3345.7v-9.1c-3.4,5.7-8.8,10.1-17.9,10.1c-12.5,0-19.9-8.4-19.9-19.9v-29.3h4.7
					v28.6c0,9.8,5.7,16.5,15.5,16.5c9.8,0,17.2-7.1,17.2-17.2v-28h4.7v48.2C-749.3,3345.7-753.7,3345.7-753.7,3345.7z"/>
				<path id="XMLID_171_" fill="#646363" d="M-707.2,3301.9c-11.5,0-21.2,8.4-21.2,23.9v19.9h-5.1v-48.2h4.7v13.8
					c3.7-8.4,12.1-14.8,21.9-14.5L-707.2,3301.9C-706.9,3301.9-707.2,3301.9-707.2,3301.9z"/>
				<path id="XMLID_168_" fill="#646363" d="M-665.8,3345.7v-8.1c-3.4,4.7-9.4,9.1-18.9,9.1c-9.1,0-19.2-5.1-19.2-15.2v-0.3
					c0-10.1,8.8-15.5,21.6-15.5c6.7,0,11.5,1,16.2,2v-2c0-9.8-6.1-14.8-16.2-14.8c-6.1,0-10.8,1.7-15.5,3.7l-1.7-4
					c5.4-2.4,10.8-4,17.5-4c12.8,0,20.6,6.4,20.6,18.9v30h-4.4V3345.7z M-665.8,3322.1c-4-1-9.8-2-16.8-2
					c-10.4,0-16.2,4.4-16.2,11.1v0.3c0,7.1,6.7,11.1,14.1,11.1c10.1,0,18.5-6.1,18.5-14.8L-665.8,3322.1L-665.8,3322.1
					L-665.8,3322.1z"/>
			</g>
		</g>
		<g id="XMLID_6905_">
			<g id="XMLID_135_">
				<path id="XMLID_151_" fill="#646363" d="M-335,3346.7c-7.1,0-14.8-2.7-20.2-7.1l2.7-3.7c5.4,4,11.5,6.4,17.5,6.4
					c6.7,0,11.8-3.7,11.8-9.1v-0.3c0-5.7-6.1-7.7-13.1-9.8c-8.1-2.4-16.8-4.7-16.8-13.1l0,0c0-7.7,6.7-13.1,16.2-13.1
					c5.7,0,12.5,2,17.5,5.4l-2.4,3.7c-4.4-3-10.1-4.7-15.2-4.7c-6.7,0-11.1,3.7-11.1,8.4v0.3c0,5.4,6.7,7.4,13.8,9.4
					c8.1,2,16.2,5.1,16.2,13.5v0.3C-317.8,3341.3-325.2,3346.7-335,3346.7z"/>
				<path id="XMLID_148_" fill="#646363" d="M-284.1,3342.7c7.7,0,12.8-3.4,16.8-7.4l3.4,2.7c-5.1,5.4-10.8,9.1-20.6,9.1
					c-12.8,0-24.3-10.1-24.3-24.9v-0.3c0-13.8,10.1-24.9,23.2-24.9c13.8,0,22.6,10.8,22.6,25.3v0.3c0,0.7,0,1,0,1.7h-40.8
					C-302.6,3335.6-293.9,3342.7-284.1,3342.7z M-267.6,3319.4c-0.7-9.8-6.4-18.5-17.5-18.5c-9.8,0-17.2,8.1-18.2,18.5H-267.6z"/>
				<path id="XMLID_146_" fill="#646363" d="M-225.1,3302.2c-11.5,0-21.2,8.4-21.2,23.9v19.9h-4.7v-48.2h4.7v13.8
					c3.7-8.4,12.1-14.8,21.9-14.5v5.1L-225.1,3302.2L-225.1,3302.2z"/>
				<path id="XMLID_144_" fill="#646363" d="M-188.7,3302.2c-11.5,0-21.2,8.4-21.2,23.9v19.9h-4.7v-48.2h4.7v13.8
					c3.7-8.4,12.1-14.8,21.9-14.5v5.1L-188.7,3302.2L-188.7,3302.2z"/>
				<path id="XMLID_141_" fill="#646363" d="M-147.3,3346v-8.1c-3.4,4.7-9.4,9.1-18.9,9.1c-9.1,0-19.2-5.1-19.2-15.2v-0.3
					c0-10.1,8.8-15.5,21.6-15.5c6.7,0,11.5,1,16.2,2v-2c0-9.8-6.1-14.8-16.2-14.8c-6.1,0-10.8,1.7-15.5,3.7l-1.7-4
					c5.4-2.4,10.8-4,17.5-4c12.8,0,20.6,6.4,20.6,18.9v30L-147.3,3346L-147.3,3346z M-147.3,3322.4c-4-1-9.8-2-16.8-2
					c-10.4,0-16.2,4.4-16.2,11.1v0.3c0,7.1,6.7,11.1,14.1,11.1c10.1,0,18.5-6.1,18.5-14.8L-147.3,3322.4L-147.3,3322.4z"/>
				<path id="XMLID_139_" fill="#646363" d="M-90.7,3346v-28.6c0-9.8-5.7-16.5-15.5-16.5c-9.8,0-17.2,7.1-17.2,17.2v28h-4.7v-48.2
					h4.7v8.8c3.4-5.7,8.8-10.1,17.9-10.1c12.5,0,19.9,8.4,19.9,19.9v29.3L-90.7,3346L-90.7,3346L-90.7,3346z"/>
				<path id="XMLID_136_" fill="#646363" d="M-37.5,3346v-8.1c-3.4,4.7-9.4,9.1-18.9,9.1c-9.1,0-19.2-5.1-19.2-15.2v-0.3
					c0-10.1,8.8-15.5,21.6-15.5c6.7,0,11.5,1,16.2,2v-2c0-9.8-6.1-14.8-16.2-14.8c-6.1,0-10.8,1.7-15.5,3.7l-1.7-4
					c5.4-2.4,10.8-4,17.5-4c12.8,0,20.6,6.4,20.6,18.9v30L-37.5,3346L-37.5,3346L-37.5,3346z M-37.1,3322.4c-4-1-9.8-2-16.8-2
					c-10.4,0-16.2,4.4-16.2,11.1v0.3c0,7.1,6.7,11.1,14.1,11.1c10.1,0,18.5-6.1,18.5-14.8L-37.1,3322.4L-37.1,3322.4z"/>
			</g>
		</g>
		<path id="XMLID_3713_" fill="#E52329" d="M-410.4,3276.3c-3.4-2.7-7.1-5.7-10.4-8.4c-8.4-6.7-17.5-11.8-29-12.1
			c-1,0-2.4-0.7-3-1.3c-3.7-3.4-7.1-6.7-10.8-10.1c-4.7-4-9.8-5.7-16.2-4.7c-8.1,1-13.5,5.4-16.8,12.5c-6.4-3.7-12.5-3.7-18.9,0
			c-0.3-0.7-0.7-1.3-1-2c-6.7-11.8-22.6-14.5-32.7-5.1c-3.4,3-6.4,6.1-9.8,8.8c-1.3,1-3.4,2-5.1,2c-7.4,0.3-14.5,2.7-20.6,7.1
			c-6.1,4.7-12.5,9.1-18.2,13.8c-15.5,9.4-25.6,26.3-25.6,45.1c0,29.6,24.6,53.6,54.9,53.6c27.3,0,49.5-19.2,53.9-44.5
			c4,2,8.4,3,13.8,3c5.1,0,9.4-1.3,13.5-3.4c4.4,25.3,27,44.8,53.9,44.8c30.3,0,54.9-23.9,54.9-53.6
			C-383.8,3302.6-394.6,3285.7-410.4,3276.3z"/>
		<ellipse id="XMLID_122_" fill="#E49B00" cx="-573.8" cy="3322.1" rx="54.9" ry="53.6"/>
		<ellipse id="XMLID_121_" fill="#E49B00" cx="-438.7" cy="3322.1" rx="54.9" ry="53.6"/>
		<ellipse id="XMLID_3697_" fill="#FAEBCC" cx="-573.8" cy="3322.1" rx="36.4" ry="35.4"/>
		<ellipse id="XMLID_3696_" fill="#FAEBCC" cx="-438.7" cy="3322.1" rx="36.4" ry="35.4"/>
		<path id="XMLID_3695_" fill="#E52329" d="M-506.8,3278.7c15.5-0.3,29,11.5,28.6,27c0,15.5-11.1,28-28.3,28.3
			c-16.5,0.3-28-12.1-28.3-26.3C-535.4,3290.4-521.9,3278-506.8,3278.7z"/>
		<path id="XMLID_3694_" fill="#FAEBCC" d="M-506.4,3292.1c8.1-0.3,14.8,6.1,14.8,13.8c0,8.1-5.7,14.5-14.5,14.8
			c-8.4,0-14.5-6.4-14.8-13.5C-521.3,3298.2-514.2,3291.8-506.4,3292.1z"/>
		<path id="XMLID_34_" fill="#E52329" d="M-563.4,3338.3c-17.5,0-31.7-13.8-31.7-31c0-0.3,0-1,0-1.3c-3.4,4.4-5.4,9.8-5.4,15.8
			c0,14.5,12.1,26.3,27,26.3c9.4,0,17.9-5.1,22.9-12.1C-554.9,3337.6-559,3338.3-563.4,3338.3z"/>
		<path id="XMLID_33_" fill="#E52329" d="M-428.3,3338.3c-17.5,0-31.7-13.8-31.7-31c0-0.3,0-1,0-1.3c-3.4,4.4-5.4,9.8-5.4,15.8
			c0,14.5,12.1,26.3,27,26.3c9.4,0,17.9-5.1,22.9-12.1C-419.8,3337.6-423.9,3338.3-428.3,3338.3z"/>
	</g>
</g>
<g id="Capa_3" display="none">
	<rect x="-1047.1" y="3235.5" display="inline" fill="#E52329" width="1017.4" height="148.2"/>
</g>
<g>
	<g>
		<g>
			<path fill="#FFFFFF" d="M191.9,638.3c-2.9,0-5.5-0.4-7.9-1.4c-2.4-0.9-4.5-2.2-6.3-3.9s-3.1-3.6-4.2-6s-1.5-4.8-1.5-7.6v-0.1
				c0-2.6,0.5-5.1,1.5-7.4c1-2.3,2.4-4.3,4-6.1c1.7-1.7,3.8-3.1,6.2-4c2.4-1,5-1.5,7.9-1.5c3.3,0,6,0.4,8.4,1.4
				c2.4,1,4.5,2.2,6.5,3.9l-6,7.1c-1.3-1.1-2.6-2-4-2.5c-1.3-0.6-3-0.9-4.8-0.9c-1.3,0-2.5,0.3-3.6,0.8c-1.1,0.5-2.1,1.2-2.9,2.1
				c-0.8,0.9-1.5,2-2,3.2c-0.5,1.2-0.7,2.5-0.7,3.9v0.1c0,1.5,0.2,2.8,0.7,4c0.5,1.2,1.2,2.3,2.1,3.2c0.9,0.9,1.9,1.6,3.1,2.1
				c1.2,0.5,2.5,0.7,4,0.7c2.4,0,4.3-0.5,5.8-1.5v-4.4H191v-7.4h16.7v16.4c-2,1.6-4.2,2.9-6.9,4
				C198.3,637.8,195.3,638.3,191.9,638.3z"/>
			<path fill="#FFFFFF" d="M230.3,638.3c-2.8,0-5.4-0.5-7.8-1.5c-2.4-1-4.4-2.4-6.2-4s-3.1-3.7-4.1-6c-1-2.3-1.5-4.7-1.5-7.4v-0.1
				c0-2.6,0.5-5.1,1.5-7.4c1-2.3,2.4-4.3,4.2-6.1c1.8-1.7,3.9-3.1,6.2-4c2.4-1,5-1.5,7.8-1.5c2.8,0,5.4,0.5,7.8,1.5
				c2.4,1,4.4,2.4,6.2,4c1.7,1.7,3.1,3.7,4.1,6c1,2.3,1.5,4.7,1.5,7.4v0.1c0,2.6-0.5,5.1-1.5,7.4c-1,2.3-2.4,4.3-4.2,6.1
				s-3.9,3.1-6.2,4C235.7,637.8,233.1,638.3,230.3,638.3z M230.3,629.2c1.4,0,2.6-0.3,3.8-0.8c1.1-0.5,2.1-1.2,2.9-2.1
				c0.8-0.9,1.4-1.9,1.9-3.1c0.4-1.2,0.7-2.4,0.7-3.8v-0.1c0-1.3-0.2-2.6-0.7-3.8c-0.4-1.2-1.1-2.2-1.9-3.1c-0.8-0.9-1.9-1.6-3-2.1
				c-1.1-0.6-2.4-0.8-3.8-0.8s-2.6,0.3-3.8,0.8c-1.1,0.5-2.1,1.2-2.9,2.1c-0.8,0.9-1.5,1.9-1.9,3.1c-0.4,1.2-0.7,2.4-0.7,3.8v0.1
				c0,1.3,0.2,2.6,0.7,3.8c0.4,1.2,1.1,2.2,1.9,3.1c0.8,0.9,1.8,1.6,3,2.1C227.7,629,229,629.2,230.3,629.2z"/>
			<path fill="#FFFFFF" d="M253.8,601.2h18.6c2.3,0,4.3,0.3,5.9,0.8c1.6,0.6,3,1.3,4,2.5c0.7,0.7,1.3,1.6,1.7,2.5
				c0.4,1,0.6,2.1,0.6,3.3v0.1c0,2.1-0.5,3.8-1.6,5.1c-1.1,1.3-2.4,2.3-4,3c2.2,0.7,4,1.8,5.3,3.1c1.3,1.3,2,3.3,2,5.7v0.1
				c0,3.1-1.2,5.6-3.6,7.4c-2.4,1.8-5.8,2.6-10.2,2.6h-18.8V601.2z M270,615.7c1.6,0,2.8-0.3,3.6-0.8c0.8-0.5,1.2-1.3,1.2-2.4v-0.1
				c0-1-0.4-1.8-1.1-2.3c-0.8-0.6-1.9-0.8-3.4-0.8h-6.6v6.4H270z M271.5,629.5c1.6,0,2.8-0.3,3.6-0.8c0.8-0.6,1.2-1.4,1.2-2.5v-0.1
				c0-1-0.4-1.8-1.2-2.4s-2-0.9-3.8-0.9h-7.7v6.7H271.5z"/>
			<path fill="#FFFFFF" d="M289.8,601.2h10.2v36.4h-10.2V601.2z"/>
			<path fill="#FFFFFF" d="M305.1,601.2h29.3v8.6h-19.3v5.5h17.5v8h-17.5v5.8h19.6v8.6h-29.5V601.2z"/>
			<path fill="#FFFFFF" d="M338.4,601.2h17.2c2.8,0,5.2,0.3,7.1,1.1c2,0.7,3.5,1.7,4.7,2.9c2.1,2.1,3.3,4.9,3.3,8.5v0.1
				c0,2.8-0.7,5.2-2,7c-1.3,1.9-3.2,3.3-5.4,4.2l8.7,12.7h-11.7l-7.4-11.1h-0.1h-4.3v11.1h-10.1L338.4,601.2L338.4,601.2z
				 M355.2,618.7c1.7,0,3.1-0.4,4-1.2c1-0.8,1.4-1.9,1.4-3.1v-0.1c0-1.5-0.5-2.5-1.5-3.3c-1-0.7-2.3-1.1-4-1.1h-6.6v8.8H355.2z"/>
			<path fill="#FFFFFF" d="M374.4,601.2h9.4l15,19.3v-19.3h9.9v36.4H400l-15.6-20v20h-9.9V601.2z"/>
			<path fill="#FFFFFF" d="M432.1,638.3c-2.8,0-5.4-0.5-7.8-1.5c-2.4-1-4.4-2.4-6.2-4c-1.7-1.7-3.1-3.7-4.1-6
				c-1-2.3-1.5-4.7-1.5-7.4v-0.1c0-2.6,0.5-5.1,1.5-7.4c1-2.3,2.4-4.3,4.2-6.1s3.9-3.1,6.2-4c2.4-1,5-1.5,7.8-1.5
				c2.8,0,5.4,0.5,7.8,1.5c2.4,1,4.4,2.4,6.2,4c1.7,1.7,3.1,3.7,4.1,6c1,2.3,1.5,4.7,1.5,7.4v0.1c0,2.6-0.5,5.1-1.5,7.4
				c-1,2.3-2.4,4.3-4.2,6.1s-3.9,3.1-6.2,4S435,638.3,432.1,638.3z M432.3,629.2c1.4,0,2.6-0.3,3.8-0.8c1.1-0.5,2.1-1.2,2.9-2.1
				c0.8-0.9,1.4-1.9,1.9-3.1c0.4-1.2,0.7-2.4,0.7-3.8v-0.1c0-1.3-0.2-2.6-0.7-3.8c-0.4-1.2-1.1-2.2-1.9-3.1c-0.8-0.9-1.9-1.6-3-2.1
				c-1.1-0.6-2.4-0.8-3.8-0.8c-1.4,0-2.6,0.3-3.8,0.8c-1.1,0.5-2.1,1.2-2.9,2.1c-0.8,0.9-1.5,1.9-1.9,3.1c-0.4,1.2-0.7,2.4-0.7,3.8
				v0.1c0,1.3,0.2,2.6,0.7,3.8c0.4,1.2,1.1,2.2,1.9,3.1c0.8,0.9,1.8,1.6,3,2.1C429.6,629,430.9,629.2,432.3,629.2z"/>
			<path fill="#FFFFFF" d="M481.8,599.6h10.1l16.1,38h-11.2l-2.8-6.7h-14.5l-2.7,6.7h-11L481.8,599.6z M490.9,622.8l-4.2-10.7
				l-4.3,10.7H490.9z"/>
			<path fill="#FFFFFF" d="M510.1,599.9h19.3c2.4,0,4.4,0.3,6.1,0.8c1.7,0.6,3.1,1.4,4.2,2.5c0.7,0.7,1.3,1.6,1.8,2.6
				c0.4,1,0.7,2.1,0.7,3.4v0.1c0,2.2-0.6,4-1.6,5.3s-2.5,2.4-4.2,3.1c2.3,0.7,4.2,1.9,5.5,3.3c1.3,1.4,2,3.4,2,6v0.1
				c0,3.3-1.2,5.8-3.8,7.6c-2.5,1.9-6,2.8-10.6,2.8h-19.5V599.9z M526.9,614.9c1.6,0,2.9-0.3,3.7-0.8c0.8-0.6,1.3-1.3,1.3-2.5v-0.1
				c0-1.1-0.4-1.9-1.2-2.4c-0.8-0.6-2-0.8-3.5-0.8h-6.8v6.6H526.9z M528.4,629.2c1.6,0,2.9-0.3,3.7-0.9s1.3-1.5,1.3-2.6v-0.1
				c0-1.1-0.4-1.9-1.2-2.5c-0.8-0.6-2.1-0.9-3.9-0.9h-8v7H528.4L528.4,629.2z"/>
			<path fill="#FFFFFF" d="M547.3,599.9h10.5v37.7h-10.5V599.9z"/>
			<path fill="#FFFFFF" d="M563.3,599.9h30.3v8.9h-20v5.7h18.1v8.3h-18.1v6h20.3v8.9h-30.5L563.3,599.9L563.3,599.9z"/>
			<path fill="#FFFFFF" d="M597.7,599.9h17.9c2.9,0,5.4,0.3,7.4,1.1c2,0.7,3.6,1.7,4.9,3c2.2,2.1,3.4,5.1,3.4,8.8v0.1
				c0,2.9-0.7,5.3-2.1,7.2c-1.4,1.9-3.3,3.4-5.7,4.4l9,13.1h-12.1l-7.6-11.5h-0.1h-4.5v11.5h-10.4L597.7,599.9L597.7,599.9z
				 M615,618c1.8,0,3.2-0.4,4.2-1.2c1-0.8,1.5-1.9,1.5-3.3v-0.1c0-1.5-0.5-2.6-1.5-3.4s-2.4-1.1-4.2-1.1h-6.9v9L615,618L615,618z"/>
			<path fill="#FFFFFF" d="M644.2,609h-11.3v-9.2h33.1v9.2h-11.3v28.6h-10.4L644.2,609L644.2,609z"/>
			<path fill="#FFFFFF" d="M688,638.4c-2.9,0-5.6-0.5-8.1-1.5s-4.6-2.4-6.4-4.2c-1.8-1.7-3.2-3.8-4.2-6.2c-1-2.4-1.5-4.9-1.5-7.6
				v-0.1c0-2.7,0.5-5.2,1.5-7.6c1-2.4,2.5-4.5,4.3-6.2c1.9-1.8,4-3.2,6.5-4.2c2.5-1,5.2-1.5,8.1-1.5c2.9,0,5.6,0.5,8.1,1.5
				c2.5,1,4.6,2.4,6.4,4.2c1.8,1.7,3.2,3.8,4.2,6.2c1,2.4,1.5,4.9,1.5,7.6v0.1c0,2.7-0.5,5.2-1.5,7.6c-1,2.4-2.5,4.5-4.3,6.2
				c-1.8,1.7-4,3.2-6.5,4.2S690.9,638.4,688,638.4z M688.1,629c1.5,0,2.8-0.3,3.9-0.8c1.2-0.6,2.2-1.3,3-2.2s1.5-2,2-3.2
				c0.4-1.2,0.7-2.5,0.7-3.9v-0.1c0-1.3-0.2-2.6-0.7-3.9c-0.4-1.2-1.1-2.3-2-3.3c-0.8-1-1.9-1.7-3.1-2.2s-2.5-0.8-3.9-0.8
				c-1.5,0-2.8,0.3-3.9,0.8c-1.2,0.6-2.2,1.3-3,2.2s-1.5,2-2,3.2c-0.4,1.2-0.7,2.5-0.7,3.9v0.1c0,1.3,0.2,2.6,0.7,3.9
				c0.4,1.2,1.1,2.3,2,3.3s1.9,1.7,3,2.2C685.3,628.7,686.6,629,688.1,629z"/>
			<path fill="#FFFFFF" d="M184.4,675.5L170,651.9H182l7.7,13.8l7.8-13.8h11.7l-14.3,23.5v14.3h-10.5V675.5z"/>
			<path fill="#FFFFFF" d="M227.4,651.9h11.1l9,14.6l9-14.6h11.1v37.7h-10.4v-21.7l-9.6,14.8h-0.2l-9.5-14.7v21.6h-10.3L227.4,651.9
				L227.4,651.9z"/>
			<path fill="#FFFFFF" d="M293.1,690.4c-2.9,0-5.6-0.5-8.1-1.5c-2.5-1-4.6-2.4-6.4-4.2c-1.8-1.7-3.2-3.8-4.2-6.2
				c-1-2.4-1.5-4.9-1.5-7.6v-0.1c0-2.7,0.5-5.2,1.5-7.6c1-2.4,2.5-4.5,4.3-6.2c1.9-1.8,4-3.2,6.5-4.2c2.5-1,5.2-1.5,8.1-1.5
				c2.9,0,5.6,0.5,8.1,1.5c2.5,1,4.6,2.4,6.4,4.2c1.8,1.7,3.2,3.8,4.2,6.2c1,2.4,1.5,4.9,1.5,7.6v0.1c0,2.7-0.5,5.2-1.5,7.6
				c-1,2.4-2.5,4.5-4.3,6.2c-1.8,1.7-4,3.2-6.5,4.2C298.7,689.9,296,690.4,293.1,690.4z M293.2,681c1.5,0,2.8-0.3,3.9-0.8
				c1.2-0.6,2.2-1.3,3-2.2c0.8-0.9,1.5-2,2-3.2c0.4-1.2,0.7-2.5,0.7-3.9v-0.1c0-1.3-0.2-2.6-0.7-3.9c-0.4-1.2-1.1-2.3-2-3.3
				c-0.9-1-1.9-1.7-3.1-2.2c-1.2-0.6-2.5-0.8-3.9-0.8c-1.5,0-2.8,0.3-3.9,0.8c-1.2,0.6-2.2,1.3-3,2.2c-0.8,0.9-1.5,2-2,3.2
				c-0.4,1.2-0.7,2.5-0.7,3.9v0.1c0,1.3,0.2,2.6,0.7,3.9c0.4,1.2,1.1,2.3,2,3.3s1.9,1.7,3,2.2C290.5,680.7,291.8,681,293.2,681z"/>
			<path fill="#FFFFFF" d="M319,651.9h14.6c3.4,0,6.4,0.4,9,1.3c2.6,0.9,4.9,2.2,6.7,3.9c1.8,1.6,3.2,3.6,4.2,5.9s1.4,4.8,1.4,7.5
				v0.1c0,2.8-0.5,5.3-1.5,7.6c-1,2.3-2.4,4.3-4.2,6s-4.1,3-6.7,4c-2.7,1-5.7,1.4-9.1,1.4H319V651.9z M333.7,680.3
				c3.1,0,5.7-0.8,7.6-2.5s2.9-4,2.9-7.1v-0.1c0-3-1-5.4-2.9-7c-1.9-1.6-4.4-2.5-7.6-2.5h-4.3v19.2H333.7z"/>
			<path fill="#FFFFFF" d="M360.2,651.9h30.3v8.9h-20v5.7h18.1v8.3h-18.1v6h20.3v8.9h-30.5L360.2,651.9L360.2,651.9z"/>
			<path fill="#FFFFFF" d="M396.2,651.9H414c2.9,0,5.4,0.3,7.4,1.1c2,0.7,3.6,1.7,4.9,3c2.2,2.1,3.4,5.1,3.4,8.8v0.1
				c0,2.9-0.7,5.3-2.1,7.2c-1.4,1.9-3.3,3.4-5.7,4.4l9,13.1h-12.1l-7.6-11.5h-0.1h-4.5v11.5h-10.4L396.2,651.9L396.2,651.9z
				 M413.5,670c1.8,0,3.2-0.4,4.2-1.2c1-0.8,1.5-1.9,1.5-3.3v-0.1c0-1.5-0.5-2.6-1.5-3.4s-2.4-1.1-4.2-1.1h-6.9v9L413.5,670
				L413.5,670z"/>
			<path fill="#FFFFFF" d="M435,651.9h9.8l15.6,19.9v-19.9h10.3v37.7h-9.2l-16.2-20.7v20.7h-10.3L435,651.9L435,651.9z"/>
			<path fill="#FFFFFF" d="M477.5,651.9H488v37.7h-10.5V651.9z"/>
			<path fill="#FFFFFF" d="M493.7,682l18.9-21.3h-18.2v-8.8h32.7v7.6l-18.9,21.3h18.9v8.8h-33.4L493.7,682L493.7,682z"/>
			<path fill="#FFFFFF" d="M545.6,651.6h10.1l16.1,38h-11.2l-2.8-6.7h-14.5l-2.7,6.7h-11L545.6,651.6z M554.7,674.8l-4.2-10.7
				l-4.3,10.7H554.7z"/>
			<path fill="#FFFFFF" d="M593.5,690.4c-2.7,0-5.2-0.5-7.6-1.5c-2.4-1-4.4-2.3-6.2-4c-1.7-1.7-3.1-3.8-4.2-6.2
				c-1-2.4-1.5-5-1.5-7.8v-0.1c0-2.8,0.5-5.3,1.5-7.7s2.4-4.5,4.2-6.2c1.7-1.8,3.9-3.1,6.3-4.2s5.1-1.5,8-1.5c2,0,3.7,0.2,5.3,0.6
				c1.6,0.4,3,0.9,4.3,1.6c1.3,0.7,2.5,1.5,3.5,2.5c1.1,1,2,2,2.8,3.2l-7.9,6.1c-1.1-1.3-2.2-2.5-3.5-3.3s-2.9-1.2-4.7-1.2
				c-1.3,0-2.5,0.3-3.6,0.8c-1.1,0.5-2,1.2-2.8,2.1c-0.8,0.9-1.4,2-1.9,3.2c-0.4,1.2-0.7,2.5-0.7,3.9v0.1c0,1.4,0.2,2.7,0.7,4
				c0.4,1.2,1.1,2.3,1.9,3.2c0.8,0.9,1.7,1.6,2.8,2.1c1.1,0.5,2.3,0.8,3.6,0.8c1,0,1.9-0.1,2.7-0.3c0.8-0.2,1.6-0.5,2.2-1
				c0.7-0.4,1.3-0.9,1.9-1.5c0.6-0.6,1.2-1.2,1.7-1.9l7.9,5.6c-0.9,1.2-1.9,2.4-2.9,3.4c-1.1,1.1-2.2,2-3.6,2.7
				c-1.3,0.7-2.9,1.3-4.5,1.8C597.5,690.2,595.6,690.4,593.5,690.4z"/>
			<path fill="#FFFFFF" d="M614.9,651.9h10.5v37.7h-10.5V651.9z"/>
			<path fill="#FFFFFF" d="M651.3,690.4c-2.9,0-5.6-0.5-8.1-1.5c-2.5-1-4.6-2.4-6.4-4.2c-1.8-1.7-3.2-3.8-4.2-6.2
				c-1-2.4-1.5-4.9-1.5-7.6v-0.1c0-2.7,0.5-5.2,1.5-7.6c1-2.4,2.5-4.5,4.3-6.2c1.9-1.8,4-3.2,6.5-4.2s5.2-1.5,8.1-1.5
				c2.9,0,5.6,0.5,8.1,1.5s4.6,2.4,6.4,4.2c1.8,1.7,3.2,3.8,4.2,6.2c1,2.4,1.5,4.9,1.5,7.6v0.1c0,2.7-0.5,5.2-1.5,7.6
				c-1,2.4-2.5,4.5-4.3,6.2c-1.9,1.8-4,3.2-6.5,4.2C656.9,689.9,654.2,690.4,651.3,690.4z M651.4,681c1.5,0,2.8-0.3,3.9-0.8
				c1.2-0.6,2.2-1.3,3-2.2c0.8-0.9,1.5-2,2-3.2c0.4-1.2,0.7-2.5,0.7-3.9v-0.1c0-1.3-0.2-2.6-0.7-3.9c-0.4-1.2-1.1-2.3-2-3.3
				c-0.8-1-1.9-1.7-3.1-2.2c-1.2-0.6-2.5-0.8-3.9-0.8c-1.5,0-2.8,0.3-3.9,0.8c-1.2,0.6-2.2,1.3-3,2.2c-0.8,0.9-1.5,2-2,3.2
				c-0.4,1.2-0.7,2.5-0.7,3.9v0.1c0,1.3,0.2,2.6,0.7,3.9c0.4,1.2,1.1,2.3,2,3.3s1.9,1.7,3,2.2C648.7,680.7,649.9,681,651.4,681z
				 M653.3,639.4l9.5,3.1l-7.9,6.9h-7.2L653.3,639.4z"/>
			<path fill="#FFFFFF" d="M677.1,651.9h9.8l15.6,19.9v-19.9h10.3v37.7h-9.2l-16.2-20.7v20.7h-10.3L677.1,651.9L677.1,651.9z"/>
		</g>
	</g>
	<g>
		<polygon opacity="0.7" fill="#9EC6E8" enable-background="new    " points="170.8,708.7 194.3,708.7 212.2,735.7 188.7,735.7 		
			"/>
		<polygon fill="#9EC6E8" points="170.8,762.7 194.3,762.7 212.2,735.7 188.7,735.7 		"/>
		<polygon opacity="0.7" fill="#00A4B8" enable-background="new    " points="207.4,708.7 230.9,708.7 248.8,735.7 225.4,735.7 		
			"/>
		<polygon fill="#00A4B8" points="207.4,762.7 230.9,762.7 248.8,735.7 225.4,735.7 		"/>
	</g>
	<g>
		<path fill="#00A4B8" d="M301.3,759.6l-10.3-15.4h-8.3v15.4H272v-48.2h22c11.3,0,18.2,6,18.2,15.9v0.1c0,7.8-4.2,12.7-10.3,14.9
			l11.8,17.2H301.3z M301.5,727.8c0-4.5-3.1-6.9-8.3-6.9h-10.6v13.8h10.7c5.2,0,8.1-2.8,8.1-6.8V727.8z"/>
		<path fill="#00A4B8" d="M321.4,759.6v-48.2H332v48.2H321.4z M322.3,707.6l7.8-12.2l9,3.9l-8.8,8.3H322.3z"/>
		<path fill="#00A4B8" d="M366.5,760.4c-14.9,0-25.5-11.1-25.5-24.8v-0.1c0-13.7,10.8-24.9,25.7-24.9c14.9,0,25.5,11.1,25.5,24.8
			v0.1C392.2,749.2,381.4,760.4,366.5,760.4z M381.1,735.5c0-8.3-6.1-15.2-14.6-15.2c-8.5,0-14.5,6.7-14.5,15v0.1
			c0,8.3,6.1,15.2,14.6,15.2c8.5,0,14.5-6.7,14.5-15V735.5z"/>
		<path fill="#00A4B8" d="M443.1,760.4c-14.2,0-24.7-10.9-24.7-24.8v-0.1c0-13.7,10.3-24.9,25.2-24.9c9.1,0,14.5,3,19,7.4l-6.7,7.8
			c-3.7-3.4-7.5-5.4-12.4-5.4c-8.1,0-14,6.7-14,15v0.1c0,8.3,5.7,15.2,14,15.2c5.5,0,8.9-2.2,12.7-5.7l6.7,6.8
			C457.9,757.1,452.4,760.4,443.1,760.4z"/>
		<path fill="#00A4B8" d="M490.5,760.3c-13,0-20.9-7.2-20.9-21.4v-27.6h10.6v27.3c0,7.9,3.9,11.9,10.4,11.9
			c6.5,0,10.4-3.9,10.4-11.6v-27.6h10.6v27.2C511.7,753.2,503.5,760.3,490.5,760.3z"/>
		<path fill="#00A4B8" d="M555.7,759.6l-4.4-10.8H531l-4.4,10.8h-10.8l20.7-48.6h9.8l20.7,48.6H555.7z M541.1,723.8l-6.4,15.6h12.8
			L541.1,723.8z"/>
		<path fill="#00A4B8" d="M602.6,759.6l-10.3-15.4H584v15.4h-10.6v-48.2h22c11.3,0,18.2,6,18.2,15.9v0.1c0,7.8-4.2,12.7-10.3,14.9
			l11.8,17.2H602.6z M602.8,727.8c0-4.5-3.1-6.9-8.3-6.9H584v13.8h10.7c5.2,0,8.1-2.8,8.1-6.8V727.8z"/>
		<path fill="#00A4B8" d="M644,721.2v38.4h-10.6v-38.4h-14.7v-9.8h39.9v9.8H644z"/>
		<path fill="#00A4B8" d="M687.3,760.4c-14.9,0-25.5-11.1-25.5-24.8v-0.1c0-13.7,10.8-24.9,25.7-24.9s25.5,11.1,25.5,24.8v0.1
			C713,749.2,702.2,760.4,687.3,760.4z M701.9,735.5c0-8.3-6.1-15.2-14.6-15.2c-8.5,0-14.5,6.7-14.5,15v0.1
			c0,8.3,6.1,15.2,14.6,15.2s14.5-6.7,14.5-15V735.5z"/>
	</g>
</g>
<g>
	<path id="XMLID_13_" fill="#FFFFFF" d="M-54.4,579.9c21.7-21.7,50.1-32.6,78.6-32.6s56.9,10.8,78.6,32.6
		c5.1,5.1,9.5,10.5,13.4,16.2c-15.5-22.6-41.4-37.3-70.9-37.3c-47.4,0-85.9,38.5-85.9,85.9c0,15.2,4,29.5,10.9,41.9
		c1.7,3.2,3.6,6.2,5.9,9.2c4.3,5.8,9.3,11,14.9,15.6l33,33l35.7,35.7l-35.7,35.7L-54.4,737C-97.8,693.6-97.8,623.3-54.4,579.9z"/>
	<path id="XMLID_12_" fill="#FFFFFF" d="M-29.8,644.9c0-47.4,38.5-85.9,85.9-85.9c29.4,0,55.4,14.8,70.9,37.3c0.2,0.3,0.4,0.6,0.7,1
		c0.6,1,1.3,1.9,1.9,2.9c0.1,0.1,0.1,0.2,0.1,0.2c26.4,42.8,21.1,99.7-16.1,136.8l-24.8,24.8l-35.7-35.7l24.8-24.8
		c23.6-23.6,23.6-62.1,0-85.7c-11.5-11.5-26.7-17.7-42.9-17.7s-31.4,6.3-42.9,17.7c-19.2,19.2-22.8,48.1-10.8,71
		C-25.8,674.4-29.8,660.1-29.8,644.9z"/>
	<path id="XMLID_11_" fill="#00A4B8" d="M-46.6,577.3c20.7-20.7,47.9-31.1,75.1-31.1s54.4,10.4,75.1,31.1
		c4.8,4.8,9.1,10.1,12.9,15.5C101.6,571.2,76.8,557,48.7,557c-45.3,0.1-82,36.8-82,82.1c0,14.5,3.8,28.2,10.4,40.1
		c1.6,3,3.5,6,5.7,8.8c4.1,5.5,8.9,10.5,14.2,14.8l31.5,31.5l38.6,38.6L32.9,807l-79.6-79.6C-88.1,686-88.1,618.7-46.6,577.3z"/>
	<path id="XMLID_10_" fill="#9EC6E8" d="M-33.3,639.1c0-45.3,36.7-82,82-82c28.1,0,52.9,14.1,67.7,35.7c0.2,0.3,0.4,0.6,0.6,0.9
		c0.6,0.9,1.2,1.9,1.8,2.8c0.1,0.1,0.1,0.2,0.1,0.2c25.2,40.9,20.1,95.3-15.4,130.8l-24.9,23.6L44.5,717l24.9-23.7
		c22.6-22.6,22.6-59.3,0-81.9c-10.9-10.9-25.5-17-40.9-17s-30,6-40.9,17c-18.4,18.3-21.8,46-10.4,67.8
		C-29.6,667.3-33.3,653.7-33.3,639.1z"/>
	<path id="XMLID_9_" fill="#FFFFFF" d="M-9.2,653.8c0,20,16.2,36.2,36.2,36.2s36.2-16.2,36.2-36.2c0-5.8-1.4-11.3-3.9-16.2
		c-6-11.8-18.2-19.9-32.3-19.9s-26.4,8.1-32.3,19.9C-7.8,642.4-9.2,647.9-9.2,653.8z"/>
</g>
</svg>
