<?xml version="1.0" encoding="utf-8"?>
<!-- Generator: Adobe Illustrator 18.0.0, SVG Export Plug-In . SVG Version: 6.00 Build 0)  -->
<!DOCTYPE svg PUBLIC "-//W3C//DTD SVG 1.1//EN" "http://www.w3.org/Graphics/SVG/1.1/DTD/svg11.dtd">
<svg version="1.1" id="Capa_1" xmlns="http://www.w3.org/2000/svg" xmlns:xlink="http://www.w3.org/1999/xlink" x="0px" y="0px"
	 viewBox="-197 574.2 900 213.3" enable-background="new -197 574.2 900 213.3" xml:space="preserve">
<rect x="-197" y="574.2" fill="none" width="900" height="213.3"/>
<g id="Capa_1_1_" display="none">
	<g display="inline">
		<g id="XMLID_6923_">
			<g id="XMLID_167_">
				<path id="XMLID_184_" fill="#646363" d="M-874.2,2790.2v-6.4c-2.7,3.7-7.5,7.2-14.9,7.2c-7.2,0-15.2-4-15.2-12v-0.3
					c0-8,6.9-12.3,17.1-12.3c5.3,0,9.1,0.8,12.8,1.6v-1.6c0-7.7-4.8-11.7-12.8-11.7c-4.8,0-8.5,1.3-12.3,2.9l-1.3-3.2
					c4.3-1.9,8.5-3.2,13.9-3.2c10.1,0,16.3,5.1,16.3,14.9v23.7h-3.5V2790.2L-874.2,2790.2z M-873.9,2771.6
					c-3.5-0.8-7.7-1.6-13.3-1.6c-8.3,0-12.8,3.5-12.8,8.8v0.3c0,5.6,5.3,8.8,11.2,8.8c8,0,14.7-4.8,14.7-11.7L-873.9,2771.6
					L-873.9,2771.6z"/>
				<path id="XMLID_182_" fill="#646363" d="M-843.5,2790.5h-3.2l-17.6-38.4h4.3l14.7,33.9l14.9-33.9h4.3L-843.5,2790.5z"/>
				<path id="XMLID_179_" fill="#646363" d="M-803.5,2787.6c6.1,0,10.1-2.7,13.3-5.9l2.7,2.1c-4,4.3-8.5,7.2-16.3,7.2
					c-10.1,0-19.2-8-19.2-19.7v-0.3c0-10.9,8-19.7,18.4-19.7c10.9,0,17.9,8.5,17.9,20v0.3c0,0.5,0,0.8,0,1.3h-32
					C-818.2,2782.2-811.3,2787.6-803.5,2787.6z M-790.5,2769.4c-0.5-7.7-5.1-14.7-13.9-14.7c-7.7,0-13.6,6.4-14.4,14.7H-790.5z"/>
				<path id="XMLID_177_" fill="#646363" d="M-747.5,2790.2v-22.7c0-7.7-4.5-13.1-12.3-13.1c-7.7,0-13.6,5.6-13.6,13.6v22.1h-3.7
					v-38.1h3.7v7.2c2.7-4.5,6.9-8,14.1-8c9.9,0,15.7,6.7,15.7,15.7v23.2C-743.5,2790.2-747.5,2790.2-747.5,2790.2z"/>
				<path id="XMLID_175_" fill="#646363" d="M-719.3,2790.8c-6.1,0-10.9-3.2-10.9-10.4v-25.1h-5.9v-3.5h5.6v-12.3h3.7v12.3h13.6v3.5
					h-13.6v24.5c0,5.3,3.2,7.5,7.7,7.5c1.9,0,3.5-0.3,5.9-1.3v3.5C-715,2790.5-716.9,2790.8-719.3,2790.8z"/>
				<path id="XMLID_173_" fill="#646363" d="M-674.7,2790.2v-7.2c-2.7,4.5-6.9,8-14.1,8c-9.9,0-15.7-6.7-15.7-15.7v-23.2h3.7v22.7
					c0,7.7,4.5,13.1,12.3,13.1c7.7,0,13.6-5.6,13.6-13.6v-22.1h3.7v38.1C-671.3,2790.2-674.7,2790.2-674.7,2790.2z"/>
				<path id="XMLID_171_" fill="#646363" d="M-637.9,2755.6c-9.1,0-16.8,6.7-16.8,18.9v15.7h-4v-38.1h3.7v10.9
					c2.9-6.7,9.6-11.7,17.3-11.5L-637.9,2755.6C-637.7,2755.6-637.9,2755.6-637.9,2755.6z"/>
				<path id="XMLID_168_" fill="#646363" d="M-605.1,2790.2v-6.4c-2.7,3.7-7.5,7.2-14.9,7.2c-7.2,0-15.2-4-15.2-12v-0.3
					c0-8,6.9-12.3,17.1-12.3c5.3,0,9.1,0.8,12.8,1.6v-1.6c0-7.7-4.8-11.7-12.8-11.7c-4.8,0-8.5,1.3-12.3,2.9l-1.3-3.2
					c4.3-1.9,8.5-3.2,13.9-3.2c10.1,0,16.3,5.1,16.3,14.9v23.7h-3.5V2790.2z M-605.1,2771.6c-3.2-0.8-7.7-1.6-13.3-1.6
					c-8.3,0-12.8,3.5-12.8,8.8v0.3c0,5.6,5.3,8.8,11.2,8.8c8,0,14.7-4.8,14.7-11.7L-605.1,2771.6L-605.1,2771.6L-605.1,2771.6z"/>
			</g>
		</g>
		<g id="XMLID_6905_">
			<g id="XMLID_135_">
				<path id="XMLID_151_" fill="#646363" d="M-343.3,2791c-5.6,0-11.7-2.1-16-5.6l2.1-2.9c4.3,3.2,9.1,5.1,13.9,5.1
					c5.3,0,9.3-2.9,9.3-7.2v-0.3c0-4.5-4.8-6.1-10.4-7.7c-6.4-1.9-13.3-3.7-13.3-10.4l0,0c0-6.1,5.3-10.4,12.8-10.4
					c4.5,0,9.9,1.6,13.9,4.3l-1.9,2.9c-3.5-2.4-8-3.7-12-3.7c-5.3,0-8.8,2.9-8.8,6.7v0.3c0,4.3,5.3,5.9,10.9,7.5
					c6.4,1.6,12.8,4,12.8,10.7v0.3C-329.7,2786.8-335.5,2791-343.3,2791z"/>
				<path id="XMLID_148_" fill="#646363" d="M-303,2787.8c6.1,0,10.1-2.7,13.3-5.9l2.7,2.1c-4,4.3-8.5,7.2-16.3,7.2
					c-10.1,0-19.2-8-19.2-19.7v-0.3c0-10.9,8-19.7,18.4-19.7c10.9,0,17.9,8.5,17.9,20v0.3c0,0.5,0,0.8,0,1.3h-32.3
					C-317.7,2782.2-310.7,2787.8-303,2787.8z M-289.9,2769.4c-0.5-7.7-5.1-14.7-13.9-14.7c-7.7,0-13.6,6.4-14.4,14.7H-289.9z"/>
				<path id="XMLID_146_" fill="#646363" d="M-256.3,2755.8c-9.1,0-16.8,6.7-16.8,18.9v15.7h-3.7v-38.1h3.7v10.9
					c2.9-6.7,9.6-11.7,17.3-11.5v4L-256.3,2755.8L-256.3,2755.8z"/>
				<path id="XMLID_144_" fill="#646363" d="M-227.5,2755.8c-9.1,0-16.8,6.7-16.8,18.9v15.7h-3.7v-38.1h3.7v10.9
					c2.9-6.7,9.6-11.7,17.3-11.5v4L-227.5,2755.8L-227.5,2755.8z"/>
				<path id="XMLID_141_" fill="#646363" d="M-194.7,2790.5v-6.4c-2.7,3.7-7.5,7.2-14.9,7.2c-7.2,0-15.2-4-15.2-12v-0.3
					c0-8,6.9-12.3,17.1-12.3c5.3,0,9.1,0.8,12.8,1.6v-1.6c0-7.7-4.8-11.7-12.8-11.7c-4.8,0-8.5,1.3-12.3,2.9l-1.3-3.2
					c4.3-1.9,8.5-3.2,13.9-3.2c10.1,0,16.3,5.1,16.3,14.9v23.7L-194.7,2790.5L-194.7,2790.5z M-194.7,2771.8
					c-3.2-0.8-7.7-1.6-13.3-1.6c-8.3,0-12.8,3.5-12.8,8.8v0.3c0,5.6,5.3,8.8,11.2,8.8c8,0,14.7-4.8,14.7-11.7L-194.7,2771.8
					L-194.7,2771.8z"/>
				<path id="XMLID_139_" fill="#646363" d="M-149.9,2790.5v-22.7c0-7.7-4.5-13.1-12.3-13.1c-7.7,0-13.6,5.6-13.6,13.6v22.1h-3.7
					v-38.1h3.7v6.9c2.7-4.5,6.9-8,14.1-8c9.9,0,15.7,6.7,15.7,15.7v23.2L-149.9,2790.5L-149.9,2790.5L-149.9,2790.5z"/>
				<path id="XMLID_136_" fill="#646363" d="M-107.8,2790.5v-6.4c-2.7,3.7-7.5,7.2-14.9,7.2c-7.2,0-15.2-4-15.2-12v-0.3
					c0-8,6.9-12.3,17.1-12.3c5.3,0,9.1,0.8,12.8,1.6v-1.6c0-7.7-4.8-11.7-12.8-11.7c-4.8,0-8.5,1.3-12.3,2.9l-1.3-3.2
					c4.3-1.9,8.5-3.2,13.9-3.2c10.1,0,16.3,5.1,16.3,14.9v23.7L-107.8,2790.5L-107.8,2790.5L-107.8,2790.5z M-107.5,2771.8
					c-3.2-0.8-7.7-1.6-13.3-1.6c-8.3,0-12.8,3.5-12.8,8.8v0.3c0,5.6,5.3,8.8,11.2,8.8c8,0,14.7-4.8,14.7-11.7L-107.5,2771.8
					L-107.5,2771.8z"/>
			</g>
		</g>
		<path id="XMLID_3713_" fill="#E52329" d="M-403,2735.3c-2.7-2.1-5.6-4.5-8.3-6.7c-6.7-5.3-13.9-9.3-22.9-9.6
			c-0.8,0-1.9-0.5-2.4-1.1c-2.9-2.7-5.6-5.3-8.5-8c-3.7-3.2-7.7-4.5-12.8-3.7c-6.4,0.8-10.7,4.3-13.3,9.9c-5.1-2.9-9.9-2.9-14.9,0
			c-0.3-0.5-0.5-1.1-0.8-1.6c-5.3-9.3-17.9-11.5-25.9-4c-2.7,2.4-5.1,4.8-7.7,6.9c-1.1,0.8-2.7,1.6-4,1.6
			c-5.9,0.3-11.5,2.1-16.3,5.6c-4.8,3.7-9.9,7.2-14.4,10.9c-12.3,7.5-20.3,20.8-20.3,35.7c0,23.5,19.5,42.4,43.5,42.4
			c21.6,0,39.2-15.2,42.7-35.2c3.2,1.6,6.7,2.4,10.9,2.4c4,0,7.5-1.1,10.7-2.7c3.5,20,21.3,35.5,42.7,35.5c24,0,43.5-18.9,43.5-42.4
			C-381.9,2756.1-390.5,2742.8-403,2735.3z"/>
		<ellipse id="XMLID_122_" fill="#E49B00" cx="-532.3" cy="2771.6" rx="43.5" ry="42.4"/>
		<ellipse id="XMLID_121_" fill="#E49B00" cx="-425.4" cy="2771.6" rx="43.5" ry="42.4"/>
		<ellipse id="XMLID_3697_" fill="#FAEBCC" cx="-532.3" cy="2771.6" rx="28.8" ry="28"/>
		<ellipse id="XMLID_3696_" fill="#FAEBCC" cx="-425.4" cy="2771.6" rx="28.8" ry="28"/>
		<path id="XMLID_3695_" fill="#E52329" d="M-479.3,2737.2c12.3-0.3,22.9,9.1,22.7,21.3c0,12.3-8.8,22.1-22.4,22.4
			c-13.1,0.3-22.1-9.6-22.4-20.8C-501.9,2746.5-491.3,2736.6-479.3,2737.2z"/>
		<path id="XMLID_3694_" fill="#FAEBCC" d="M-479,2747.8c6.4-0.3,11.7,4.8,11.7,10.9c0,6.4-4.5,11.5-11.5,11.7
			c-6.7,0-11.5-5.1-11.7-10.7C-490.7,2752.6-485.1,2747.6-479,2747.8z"/>
		<path id="XMLID_34_" fill="#E52329" d="M-524.1,2784.4c-13.9,0-25.1-10.9-25.1-24.5c0-0.3,0-0.8,0-1.1c-2.7,3.5-4.3,7.7-4.3,12.5
			c0,11.5,9.6,20.8,21.3,20.8c7.5,0,14.1-4,18.1-9.6C-517.4,2783.8-520.6,2784.4-524.1,2784.4z"/>
		<path id="XMLID_33_" fill="#E52329" d="M-417.1,2784.4c-13.9,0-25.1-10.9-25.1-24.5c0-0.3,0-0.8,0-1.1c-2.7,3.5-4.3,7.7-4.3,12.5
			c0,11.5,9.6,20.8,21.3,20.8c7.5,0,14.1-4,18.1-9.6C-410.5,2783.8-413.7,2784.4-417.1,2784.4z"/>
	</g>
</g>
<g id="Capa_3" display="none">
	<rect x="-907" y="2703" display="inline" fill="#E52329" width="805.3" height="117.3"/>
</g>
<g>
	<g>
		<polygon opacity="0.7" fill="#A9C5E6" enable-background="new    " points="113,617.7 129,617.7 141.3,636.1 125,636.1 		"/>
		<polygon fill="#A9C5E6" points="113,654.5 129,654.5 141.3,636.1 125,636.1 		"/>
		<polygon opacity="0.7" fill="#A9C5E6" enable-background="new    " points="137.8,617.7 154.1,617.7 166.1,636.1 150.1,636.1 		
			"/>
		<polygon fill="#A9C5E6" points="137.8,654.5 154.1,654.5 166.1,636.1 150.1,636.1 		"/>
	</g>
	<g>
		<path fill="#FFFFFF" d="M148.2,747.8l-12.5-18.7h-10.1v18.7h-12.8V690h26.4c13.6,0,21.9,7.2,21.9,19.2v0.3
			c0,9.3-5.1,15.2-12.5,17.9l14.1,20.8L148.2,747.8L148.2,747.8z M148.5,709.7c0-5.3-3.7-8.3-10.1-8.3h-12.5V718h12.8
			C144.7,718,148.5,714.5,148.5,709.7L148.5,709.7z"/>
		<path fill="#FFFFFF" d="M173.5,747.8V690h12.8v57.9H173.5z M174.6,685.2l9.3-14.7l10.9,4.8l-10.7,9.9H174.6z"/>
		<path fill="#FFFFFF" d="M228.7,748.6c-17.9,0-30.7-13.3-30.7-29.9v-0.3c0-16.5,13.1-29.9,30.9-29.9s30.7,13.3,30.7,29.9v0.3
			C259.7,735.3,246.6,748.6,228.7,748.6z M246.3,718.8c0-9.9-7.2-18.1-17.6-18.1c-10.4,0-17.3,8-17.3,18.1v0.3
			c0,9.9,7.2,18.1,17.6,18.1C239.1,736.9,246.3,728.9,246.3,718.8L246.3,718.8z"/>
		<path fill="#FFFFFF" d="M323.1,748.6c-17.1,0-29.6-13.1-29.6-29.9v-0.3c0-16.5,12.5-29.9,30.1-29.9c10.9,0,17.6,3.7,22.9,9.1
			l-8,9.3c-4.5-4-9.1-6.7-14.9-6.7c-9.9,0-16.8,8-16.8,18.1v0.3c0,9.9,6.9,18.1,16.8,18.1c6.7,0,10.7-2.7,15.2-6.7l8,8.3
			C340.7,744.6,334.3,748.6,323.1,748.6z"/>
		<path fill="#FFFFFF" d="M381.3,748.6c-15.5,0-25.1-8.8-25.1-25.9v-33.1H369v32.8c0,9.3,4.8,14.4,12.5,14.4s12.5-4.8,12.5-13.9V690
			h12.8v32.8C406.6,740.1,396.7,748.6,381.3,748.6z"/>
		<path fill="#FFFFFF" d="M460.7,747.8l-5.3-13.1h-24.5l-5.3,13.1h-13.1l24.8-58.4H449l24.8,58.4H460.7z M443.1,704.6l-7.7,18.7
			h15.5L443.1,704.6z"/>
		<path fill="#FFFFFF" d="M518.1,747.8l-12.5-18.7h-9.9v18.7h-12.8V690h26.4c13.6,0,21.9,7.2,21.9,19.2v0.3
			c0,9.3-5.1,15.2-12.5,17.9l14.1,20.8L518.1,747.8L518.1,747.8z M518.3,709.7c0-5.3-3.7-8.3-10.1-8.3h-12.5V718h12.8
			C514.9,718,518.3,714.5,518.3,709.7L518.3,709.7z"/>
		<path fill="#FFFFFF" d="M569,701.4v46.1h-12.8v-46.1h-17.6v-11.7h48v11.7H569z"/>
		<path fill="#FFFFFF" d="M622.1,748.6c-17.9,0-30.7-13.3-30.7-29.9v-0.3c0-16.5,13.1-29.9,30.9-29.9S653,702,653,718.5v0.3
			C653,735.3,639.9,748.6,622.1,748.6z M639.7,718.8c0-9.9-7.2-18.1-17.6-18.1c-10.4,0-17.3,8-17.3,18.1v0.3
			c0,9.9,7.2,18.1,17.6,18.1C632.5,736.9,639.7,728.9,639.7,718.8L639.7,718.8z"/>
	</g>
	<g>
		<path fill="#FFFFFF" d="M197.8,656.9c-12.5,0-20.8-9.1-20.8-20.8c0-11.2,8.5-20.8,20.8-20.8c6.9,0,11.2,1.9,15.5,5.3l-4.5,5.3
			c-3.2-2.7-6.1-4.3-11.2-4.3c-7.5,0-13.1,6.4-13.1,14.1c0,8.3,5.3,14.4,13.6,14.4c3.7,0,7.2-1.3,9.6-2.9v-7.5h-10.1v-6.1h17.1v16.8
			C210.6,654,204.7,656.9,197.8,656.9z"/>
		<path fill="#FFFFFF" d="M248.2,656.9c-12.3,0-20.8-9.3-20.8-20.8s8.8-20.8,21.1-20.8c12.3,0,20.8,9.3,20.8,20.8
			C269.3,647.3,260.5,656.9,248.2,656.9z M248.2,622c-8,0-13.6,6.4-13.6,14.1c0,7.7,5.6,14.4,13.6,14.4c8,0,13.6-6.4,13.6-14.1
			S256.2,622,248.2,622z"/>
		<path fill="#FFFFFF" d="M314.1,626.2c0,4.8-2.7,7.5-5.6,9.1c4.8,1.6,8,4.3,8,9.9c0,7.2-5.9,10.9-14.9,10.9h-18.7v-40h17.9
			C309,616.1,314.1,620.1,314.1,626.2z M307.1,627.6c0-3.2-2.4-5.1-6.9-5.1h-10.1v10.7h9.6C304.2,632.9,307.1,631.3,307.1,627.6z
			 M309.3,644.4c0-3.5-2.7-5.3-8.3-5.3h-11.2V650h11.7C306.6,650,309.3,648.1,309.3,644.4z"/>
		<path fill="#FFFFFF" d="M337.3,616.1v40h-6.9v-40H337.3z"/>
		<path fill="#FFFFFF" d="M383.1,622.5h-22.7v10.4h20v6.4h-20V650h22.9v6.4h-30.1v-40h29.6v6.1L383.1,622.5L383.1,622.5z"/>
		<path fill="#FFFFFF" d="M422.9,656.1l-9.9-13.9h-8.8v13.9H397v-40h17.9c9.3,0,14.9,4.8,14.9,12.8c0,6.7-4,10.7-9.6,12.3l10.9,15.2
			L422.9,656.1L422.9,656.1z M414.3,622.5h-10.1v13.3h10.4c5.1,0,8.3-2.7,8.3-6.7C422.6,624.9,419.7,622.5,414.3,622.5z"/>
		<path fill="#FFFFFF" d="M471.7,616.1h6.9v40h-5.9l-22.1-28.5v28.5h-6.9v-40h6.4l21.6,27.7V616.1z"/>
		<path fill="#FFFFFF" d="M513.5,656.9c-12.3,0-20.8-9.3-20.8-20.8s8.8-20.8,21.1-20.8s20.8,9.3,20.8,20.8
			C534.6,647.3,525.8,656.9,513.5,656.9z M513.5,622c-8,0-13.6,6.4-13.6,14.1c0,7.7,5.6,14.4,13.6,14.4s13.6-6.4,13.6-14.1
			S521.5,622,513.5,622z"/>
		<path fill="#FFFFFF" d="M586.1,656.1h-14.9v-40h14.9c12.5,0,21.3,8.5,21.3,20C607.1,647.3,598.6,656.1,586.1,656.1z M586.1,622.5
			h-8v27.2h8c8.5,0,13.9-5.6,13.9-13.6C599.9,628.4,594.3,622.5,586.1,622.5z"/>
		<path fill="#FFFFFF" d="M650.9,622.5h-22.7v10.4h20v6.4h-20V650h22.9v6.4h-29.9v-40h29.6C650.9,616.4,650.9,622.5,650.9,622.5z"/>
	</g>
	<g>
		<path id="XMLID_114_" fill="#A9C5E6" d="M-40.3,787.6c-58.9,0-106.7-47.7-106.7-106.7s47.7-106.7,106.7-106.7S66.3,622,66.3,680.9
			C66.3,739.6,18.6,787.6-40.3,787.6z M-40.3,584.1c-53.3,0-96.5,43.5-96.5,96.5c0,53.3,43.5,96.5,96.5,96.5
			c53.3,0,96.5-43.5,96.5-96.5C56.2,627.6,13,584.1-40.3,584.1z"/>
		<path id="XMLID_113_" fill="#A9C5E6" d="M-109.7,760.4c0,0,29.3-33.3,103.5-15.5c0,0,57.3,10.9,89.6-7.7c0,0-36,35.7-107.2,16.8
			C-23.8,753.7-64.6,742.2-109.7,760.4z"/>
		<path id="XMLID_106_" fill="#FFFFFF" d="M-96.9,678.8v49.9h-3.5h-0.5v6.9h-4.5V746h6.7c14.4-8.5,43.7-19.2,92.5-7.2
			c0,0,13.6,2.7,31.2,3.2v-6.1h-4.5v-6.9h-0.5h-3.5V679h10.9l2.1-5.9l-50.1-28v-16.5l-2.9-1.9v-9.9h2.9v-4.5h-2.9V610
			c0-6.9-6.7-14.7-15.7-15.2v-8.3h-0.3h-0.3h-0.5l0,0l0,0h-0.5h-0.3h-0.3v8.3c-8.8,0.5-15.7,8.3-15.7,15.2v2.4h-2.9v4.5h2.9v9.9
			l-2.9,1.9v16.5l-50.1,28l2.1,5.9h11.2L-96.9,678.8L-96.9,678.8z M-11.3,678.8H3.4v49.9h-14.7V678.8z M-32.6,609.2
			c6.1,0,5.9,5.9,5.9,5.9v11.7h-11.2V615C-37.9,615-38.5,609.2-32.6,609.2z M-48.1,609.2c5.9,0,5.3,5.9,5.3,5.9v11.7h-11.2V615
			C-53.9,615-54.2,609.2-48.1,609.2z M-56.9,678.8h16.5h16.5v49.9h-16.5l0,0l0,0h-16.5V678.8z M-84.1,678.8h14.7v49.9h-14.7V678.8z"
			/>
	</g>
</g>
</svg>
