<?xml version="1.0" encoding="utf-8"?>
<!-- Generator: Adobe Illustrator 18.0.0, SVG Export Plug-In . SVG Version: 6.00 Build 0)  -->
<!DOCTYPE svg PUBLIC "-//W3C//DTD SVG 1.1//EN" "http://www.w3.org/Graphics/SVG/1.1/DTD/svg11.dtd">
<svg version="1.1" id="Capa_1" xmlns="http://www.w3.org/2000/svg" xmlns:xlink="http://www.w3.org/1999/xlink" x="0px" y="0px"
	 viewBox="0 666.9 595.3 177.3" enable-background="new 0 666.9 595.3 177.3" xml:space="preserve">
<rect y="666.9" fill="none" width="595.3" height="177.3"/>
<g>
	<rect y="666.9" fill="none" width="595.3" height="177.3"/>
	<g>
		<g>
			<path fill="#253546" d="M237.5,820.1l-8.8-13.1h-7.1v13.1h-9v-40.9h18.7c9.6,0,15.4,5.1,15.4,13.5v0.1c0,6.6-3.6,10.7-8.8,12.7
				l10,14.6H237.5z M237.7,793.2c0-3.9-2.7-5.8-7.1-5.8h-8.9v11.7h9.1c4.4,0,6.9-2.3,6.9-5.8V793.2z"/>
			<path fill="#253546" d="M255.3,820.1v-40.9h9v40.9H255.3z M256.1,776l6.6-10.3l7.7,3.3l-7.5,7H256.1z"/>
			<path fill="#253546" d="M294.4,820.8c-12.6,0-21.7-9.4-21.7-21v-0.1c0-11.6,9.2-21.1,21.8-21.1s21.7,9.4,21.7,21v0.1
				C316.2,811.3,307,820.8,294.4,820.8z M306.8,799.7c0-7-5.1-12.9-12.4-12.9c-7.2,0-12.3,5.7-12.3,12.7v0.1c0,7,5.1,12.8,12.4,12.8
				c7.2,0,12.3-5.7,12.3-12.7V799.7z"/>
			<path fill="#253546" d="M360.9,820.8c-12,0-21-9.3-21-21v-0.1c0-11.6,8.8-21.1,21.3-21.1c7.7,0,12.3,2.6,16.1,6.3l-5.7,6.6
				c-3.2-2.9-6.4-4.6-10.5-4.6c-6.9,0-11.9,5.7-11.9,12.7v0.1c0,7,4.8,12.8,11.9,12.8c4.7,0,7.5-1.9,10.7-4.8l5.7,5.8
				C373.4,818,368.8,820.8,360.9,820.8z"/>
			<path fill="#253546" d="M401.9,820.7c-11,0-17.7-6.1-17.7-18.2v-23.4h9v23.1c0,6.7,3.3,10.1,8.8,10.1c5.5,0,8.8-3.3,8.8-9.8
				v-23.4h9v23.1C419.8,814.7,412.9,820.7,401.9,820.7z"/>
			<path fill="#253546" d="M458,820.1l-3.7-9.2h-17.3l-3.7,9.2H424l17.5-41.2h8.3l17.5,41.2H458z M445.6,789.7l-5.4,13.3H451
				L445.6,789.7z"/>
			<path fill="#253546" d="M498.5,820.1l-8.8-13.1h-7.1v13.1h-9v-40.9h18.7c9.6,0,15.4,5.1,15.4,13.5v0.1c0,6.6-3.6,10.7-8.8,12.7
				l10,14.6H498.5z M498.7,793.2c0-3.9-2.7-5.8-7.1-5.8h-8.9v11.7h9.1c4.4,0,6.9-2.3,6.9-5.8V793.2z"/>
			<path fill="#253546" d="M534.4,787.5v32.6h-9v-32.6H513v-8.3h33.9v8.3H534.4z"/>
			<path fill="#253546" d="M571.9,820.8c-12.6,0-21.7-9.4-21.7-21v-0.1c0-11.6,9.2-21.1,21.8-21.1c12.6,0,21.7,9.4,21.7,21v0.1
				C593.7,811.3,584.5,820.8,571.9,820.8z M584.2,799.7c0-7-5.1-12.9-12.4-12.9c-7.2,0-12.3,5.7-12.3,12.7v0.1
				c0,7,5.1,12.8,12.4,12.8s12.3-5.7,12.3-12.7V799.7z"/>
		</g>
		<g>
			<path fill="#769543" d="M239.1,709.3v43.5h-12v-43.5h-16.6v-11.1h45.2v11.1H239.1z"/>
			<path fill="#769543" d="M294.1,752.8l-11.7-17.5H273v17.5h-12v-54.6h25c12.9,0,20.6,6.8,20.6,18v0.2c0,8.8-4.8,14.4-11.7,16.9
				l13.3,19.5H294.1z M294.4,716.8c0-5.1-3.6-7.8-9.4-7.8H273v15.7h12.2c5.9,0,9.2-3.1,9.2-7.7V716.8z"/>
			<path fill="#769543" d="M354.1,752.8l-5-12.2H326l-5,12.2h-12.2l23.4-55h11.1l23.4,55H354.1z M337.6,712.2l-7.3,17.7h14.5
				L337.6,712.2z M332.7,693.9l8.8-13.8l10.2,4.4l-10,9.4H332.7z"/>
			<path fill="#769543" d="M413.9,752.8v-35.6l-15.4,23.3h-0.3L383,717.4v35.4h-11.8v-54.6h12.9l14.4,23.1l14.4-23.1h12.9v54.6
				H413.9z"/>
			<path fill="#769543" d="M435.5,752.8v-54.6h12v54.6H435.5z"/>
			<path fill="#769543" d="M482,709.3v43.5h-12v-43.5h-16.6v-11.1h45.2v11.1H482z"/>
			<path fill="#769543" d="M503.9,752.8v-54.6h41.2v10.7h-29.3V720h25.7v10.7h-25.7v11.5h29.6v10.7H503.9z"/>
			<path fill="#769543" d="M571.7,753.6c-8.3,0-16.6-2.9-23.2-8.7l7.1-8.5c4.9,4.1,10.1,6.6,16.3,6.6c4.9,0,7.9-2,7.9-5.1v-0.2
				c0-3-1.9-4.6-11-6.9c-11-2.8-18.1-5.8-18.1-16.7v-0.2c0-9.9,8-16.5,19.1-16.5c8,0,14.7,2.5,20.3,6.9l-6.2,9
				c-4.8-3.4-9.6-5.4-14.2-5.4c-4.6,0-7,2.1-7,4.8v0.2c0,3.6,2.3,4.8,11.8,7.2c11.1,2.9,17.3,6.9,17.3,16.4v0.2
				C591.8,747.5,583.5,753.6,571.7,753.6z"/>
		</g>
		<g>
			<path id="XMLID_12_" fill="#253546" d="M89.1,673.8c-45.1,0-81.7,36.7-81.7,81.7c0,45.1,36.7,81.7,81.7,81.7
				c45.1,0,81.7-36.7,81.7-81.7C170.9,710.4,134.2,673.8,89.1,673.8z"/>
			<path id="XMLID_9_" fill="#A9C5E6" d="M89.1,843c-48.3,0-87.5-39.3-87.5-87.5c0-48.3,39.3-87.5,87.5-87.5
				c48.3,0,87.5,39.3,87.5,87.5C176.7,803.7,137.4,843,89.1,843z M89.1,673.8c-45.1,0-81.7,36.7-81.7,81.7
				c0,45.1,36.7,81.7,81.7,81.7c45.1,0,81.7-36.7,81.7-81.7C170.9,710.4,134.2,673.8,89.1,673.8z"/>
			<path id="XMLID_8_" fill="#A9C5E6" d="M32.3,820.6c0,0,24.1-27.4,84.8-12.7c0,0,47.1,8.9,73.5-6.3c0,0-29.6,29.3-87.9,13.7
				C102.8,815.2,69.1,805.7,32.3,820.6z"/>
			<path id="XMLID_1_" fill="#FFFFFF" d="M42.7,753.9v41h-2.8h-0.4v5.7h-3.8v8.5h5.5c11.8-7,35.9-15.7,76-6c0,0,11.1,2.1,25.5,2.5
				v-5h-3.8v-5.7h-0.4h-2.8v-41h9l1.7-4.9l-41.1-23.1v-13.5l-2.4-1.5v-8h2.4v-3.6h-2.4v-1.9c0-5.7-5.5-12.1-12.8-12.5v-6.7h-0.3
				h-0.1h-0.4h0h0h-0.4h-0.1h-0.3v6.7c-7.3,0.4-12.8,6.8-12.8,12.5v1.9h-2.4v3.6h2.4v8l-2.4,1.5v13.5L32,749l1.7,4.9H42.7z
				 M113,753.9h12v41h-12V753.9z M95.5,696.6c5,0,4.9,4.8,4.9,4.8v9.5h-9.3v-9.5C91.1,701.4,90.6,696.6,95.5,696.6z M82.8,696.6
				c4.8,0,4.4,4.8,4.4,4.8v9.5H78v-9.5C78,701.4,77.8,696.6,82.8,696.6z M75.5,753.9h13.6h13.6v41H89.2h0h0H75.5V753.9z M53.3,753.9
				h12v41h-12V753.9z"/>
		</g>
	</g>
</g>
</svg>
