<?xml version="1.0" encoding="utf-8"?>
<!-- Generator: Adobe Illustrator 18.0.0, SVG Export Plug-In . SVG Version: 6.00 Build 0)  -->
<!DOCTYPE svg PUBLIC "-//W3C//DTD SVG 1.1//EN" "http://www.w3.org/Graphics/SVG/1.1/DTD/svg11.dtd">
<svg version="1.1" id="Capa_1" xmlns="http://www.w3.org/2000/svg" xmlns:xlink="http://www.w3.org/1999/xlink" x="0px" y="0px"
	 viewBox="50.3 185.2 700 230" enable-background="new 50.3 185.2 700 230" xml:space="preserve">
<rect x="50.3" y="185.2" fill="none" width="700" height="230"/>
<polygon fill="#9FC7E9" points="178.6,210.2 70,210.2 70,390.2 249.9,390.2 249.9,282.6 214,319.4 214,355 106.1,355 106.1,246.8 
	142.2,246.8 "/>
<polygon fill="#66983B" points="249.9,210.2 249.9,259.5 221.9,287.8 221.9,238.8 "/>
<polygon opacity="0.7" fill="#66983B" enable-background="new    " points="201.4,210.7 249.9,210.7 221.9,238.8 173,238.8 "/>
<g>
	<g>
		<path fill="#1A3346" d="M294.6,245.7h-6.4V257h-8.4v-37.9h15.5c9.1,0,14.5,5.3,14.5,13.2v0.1C309.9,241.2,303.1,245.7,294.6,245.7
			z M301.4,232.4c0-3.7-2.6-5.8-6.8-5.8h-6.5v11.6h6.6C299,238.2,301.4,235.7,301.4,232.4L301.4,232.4z"/>
		<path fill="#1A3346" d="M331.8,257.7c-11.7,0-20.1-8.7-20.1-19.5v-0.1c0-10.8,8.5-19.6,20.2-19.6c11.7,0,20.1,8.7,20.1,19.5v0.1
			C351.9,248.9,343.4,257.7,331.8,257.7z M343.2,238.1c0-6.5-4.8-11.9-11.5-11.9c-6.7,0-11.3,5.3-11.3,11.8v0.1
			c0,6.5,4.8,11.9,11.5,11.9C338.6,250,343.2,244.7,343.2,238.1L343.2,238.1z"/>
		<path fill="#1A3346" d="M379.7,257l-8.2-12.1H365V257h-8.4v-37.9H374c9,0,14.3,4.8,14.3,12.5v0.1c0,6.1-3.3,10-8.2,11.8l9.3,13.5
			H379.7z M379.9,232.1c0-3.6-2.5-5.4-6.6-5.4H365v10.9h8.5C377.6,237.5,379.9,235.4,379.9,232.1L379.9,232.1z"/>
		<path fill="#1A3346" d="M410.4,226.9v30.3H402v-30.3h-11.6v-7.7h31.4v7.7H410.4z"/>
		<path fill="#1A3346" d="M448.9,257l-3.5-8.5h-16l-3.5,8.5h-8.5l16.2-38.2h7.7l16.2,38.2H448.9z M437.5,228.9l-5,12.2h10.1
			L437.5,228.9z"/>
		<path fill="#1A3346" d="M460.8,257v-37.9h8.4v30.4h18.9v7.6h-27.3V257z"/>
		<path fill="#1A3346" d="M520,257h-14.7v-37.9H520c11.9,0,20.2,8.2,20.2,18.8v0.1C540.2,248.8,531.9,257,520,257z M531.5,238.1
			c0-6.7-4.7-11.5-11.5-11.5h-6.5v22.9h6.5C526.8,249.6,531.5,244.9,531.5,238.1L531.5,238.1z"/>
		<path fill="#1A3346" d="M544.9,257v-37.9h28.6v7.4h-20.3v7.7h17.9v7.4h-17.9v7.9h20.6v7.4h-28.9V257z"/>
		<path fill="#1A3346" d="M297.1,291.9v30.3h-8.4v-30.3h-11.6v-7.7h31.4v7.7H297.1z"/>
		<path fill="#1A3346" d="M335.3,322.1l-8.2-12.1h-6.5v12.1h-8.4v-38h17.4c9,0,14.3,4.8,14.3,12.5v0.1c0,6.1-3.3,10-8.2,11.8
			L345,322h-9.8V322.1z M335.5,297.1c0-3.6-2.5-5.4-6.6-5.4h-8.3v10.9h8.5C333.1,302.6,335.5,300.5,335.5,297.1L335.5,297.1z"/>
		<path fill="#1A3346" d="M377,322.1l-3.5-8.5h-16l-3.5,8.5h-8.5l16.2-38.2h7.7l16.2,38.2H377z M365.4,293.9l-5,12.2h10.1
			L365.4,293.9z"/>
		<path fill="#1A3346" d="M415.5,322.1L397.1,298v24.2h-8.3v-38h7.7l17.8,23.4v-23.4h8.3v38H415.5z"/>
		<path fill="#1A3346" d="M442.5,322.7c-5.8,0-11.6-2-16.1-6.1l4.9-5.9c3.4,2.8,7,4.7,11.3,4.7c3.4,0,5.4-1.4,5.4-3.6v-0.1
			c0-2.2-1.2-3.2-7.6-4.9c-7.6-1.9-12.6-4.1-12.6-11.6V295c0-6.9,5.6-11.5,13.3-11.5c5.6,0,10.2,1.7,14.1,4.9l-4.3,6.2
			c-3.4-2.4-6.7-3.7-9.9-3.7s-4.9,1.5-4.9,3.3v0.1c0,2.5,1.6,3.3,8.2,5c7.7,2,12,4.8,12,11.3v0.1
			C456.4,318.4,450.6,322.7,442.5,322.7z"/>
		<path fill="#1A3346" d="M475.6,310.7h-6.4V322h-8.4v-37.9h15.5c9.1,0,14.5,5.3,14.5,13.2v0.1C491,306.2,484.1,310.7,475.6,310.7z
			 M482.5,297.4c0-3.7-2.6-5.8-6.8-5.8h-6.5v11.6h6.6C480.1,303.3,482.5,300.8,482.5,297.4L482.5,297.4z"/>
		<path fill="#1A3346" d="M518.9,322.1l-3.5-8.5h-16l-3.5,8.5h-8.5l16.2-38.2h7.7l16.2,38.2H518.9z M507.3,293.9l-5,12.2h10.1
			L507.3,293.9z"/>
		<path fill="#1A3346" d="M553.7,322.1l-8.2-12.1H539v12.1h-8.4v-38h17.4c9,0,14.3,4.8,14.3,12.5v0.1c0,6.1-3.3,10-8.2,11.8
			l9.3,13.5h-9.6V322.1z M554,297.1c0-3.6-2.5-5.4-6.6-5.4h-8.3v10.9h8.5C551.6,302.6,554,300.5,554,297.1L554,297.1z"/>
		<path fill="#1A3346" d="M567.2,322.1v-38h28.6v7.4h-20.3v7.7h17.9v7.4h-17.9v7.9h20.6v7.4h-28.9V322.1z"/>
		<path fill="#1A3346" d="M627.5,322.1L609.1,298v24.2h-8.3v-38h7.7l17.8,23.4v-23.4h8.3v38H627.5z"/>
		<path fill="#1A3346" d="M658.8,322.7c-11.1,0-19.5-8.6-19.5-19.5v-0.1c0-10.8,8.2-19.6,19.7-19.6c7.1,0,11.5,2.4,15,5.9l-5.3,6.1
			c-2.9-2.6-5.9-4.3-9.8-4.3c-6.4,0-11,5.3-11,11.8v0.1c0,6.5,4.5,11.9,11,11.9c4.3,0,7-1.7,10-4.4l5.3,5.3
			C670.3,320.2,666,322.7,658.8,322.7z"/>
		<path fill="#1A3346" d="M678.6,322.1v-38h8.4v38H678.6z"/>
		<path fill="#1A3346" d="M721.9,322.1l-3.5-8.5h-16l-3.5,8.5h-8.5l16.2-38.2h7.7l16.2,38.2H721.9z M710.5,293.9l-5,12.2h10.1
			L710.5,293.9z"/>
	</g>
	<g>
		<polygon opacity="0.7" fill="#9FC7E9" enable-background="new    " points="276.6,353.7 288.2,353.7 297.1,366.9 285.5,366.9 		
			"/>
		<polygon fill="#9FC7E9" points="276.6,380.2 288.2,380.2 297.1,366.9 285.5,366.9 		"/>
		<polygon opacity="0.7" fill="#66983B" enable-background="new    " points="294.7,353.7 306.2,353.7 315,366.9 303.5,366.9 		"/>
		<polygon fill="#66983B" points="294.7,380.2 306.2,380.2 315,366.9 303.5,366.9 		"/>
	</g>
	<g>
		<path fill="#1A3346" d="M342.5,381.5l-7-10.1h-6.4v10.1H324v-28.8h12.8c6.6,0,10.7,3.5,10.7,9.2c0,4.8-2.8,7.7-6.9,8.7l7.8,10.9
			H342.5L342.5,381.5z M336.5,357.3h-7.4v9.6h7.4c3.6,0,5.9-1.9,5.9-4.9C342.4,358.9,340.3,357.3,336.5,357.3z"/>
		<path fill="#1A3346" d="M359.2,352.7v28.8h-5.1v-28.8H359.2z M354.6,350.3l4.3-6.8l4.5,2l-5,4.8H354.6z"/>
		<path fill="#1A3346" d="M380.6,381.9c-8.8,0-15.1-6.7-15.1-14.9c0-8.2,6.2-15,15.1-15s15.1,6.7,15.1,14.9
			C395.7,375.1,389.5,381.9,380.6,381.9z M380.6,356.9c-5.7,0-9.8,4.5-9.8,10.2s4.1,10.3,9.8,10.3s9.8-4.5,9.8-10.2
			S386.3,356.9,380.6,356.9z"/>
		<path fill="#1A3346" d="M427.6,381.9c-8.4,0-14.6-6.6-14.6-14.9c0-8.3,6.1-15,14.9-15c5.3,0,8.5,1.8,11.2,4.5l-3.3,3.7
			c-2.3-2.2-4.8-3.6-8.1-3.6c-5.6,0-9.5,4.5-9.5,10.2s4,10.3,9.5,10.3c3.5,0,5.8-1.5,8.3-3.7l3.3,3.3
			C436.3,380,433,381.9,427.6,381.9z"/>
		<path fill="#1A3346" d="M468.8,369c0,8.6-4.9,12.9-12.4,12.9c-7.5,0-12.2-4.3-12.2-12.7v-16.6h5.1V369c0,5.3,2.7,8.3,7.3,8.3
			c4.5,0,7.3-2.7,7.3-8.1v-16.6h5.1V369H468.8z"/>
		<path fill="#1A3346" d="M502.3,381.5H497l-2.9-6.9h-13.6l-2.9,6.9h-5.2l12.7-29h4.7L502.3,381.5z M487.3,358.4l-5,11.6h9.9
			L487.3,358.4z"/>
		<path fill="#1A3346" d="M525.7,381.5l-7-10.1h-6.4v10.1h-5.1v-28.8H520c6.6,0,10.7,3.5,10.7,9.2c0,4.8-2.8,7.7-6.9,8.7l7.8,10.9
			H525.7L525.7,381.5z M519.7,357.3h-7.4v9.6h7.4c3.6,0,5.9-1.9,5.9-4.9C525.7,358.9,523.4,357.3,519.7,357.3z"/>
		<path fill="#1A3346" d="M549.1,381.5H544v-24.2h-9.2v-4.7h23.4v4.7H549v24.2H549.1z"/>
		<path fill="#1A3346" d="M575.7,381.9c-8.8,0-15.1-6.7-15.1-14.9c0-8.2,6.4-14.9,15.2-14.9s15.1,6.7,15.1,14.9
			C590.9,375.2,584.7,381.9,575.7,381.9z M575.7,356.9c-5.7,0-9.8,4.5-9.8,10.2s4.1,10.3,9.8,10.3s9.8-4.5,9.8-10.2
			S581.5,356.9,575.7,356.9z"/>
	</g>
</g>
</svg>
